/* XPM */
static const char * about_xpm[] = {
"16 16 116 2",
"  	c None",
". 	c #0159AF",
"+ 	c #1B6BBA",
"@ 	c #196BBA",
"# 	c #015DB5",
"$ 	c #1466B8",
"% 	c #6299D0",
"& 	c #89B3DC",
"* 	c #75A6D6",
"= 	c #76A6D6",
"- 	c #88B4DE",
"; 	c #629CD5",
"> 	c #136BC1",
", 	c #2473C0",
"' 	c #78A9D9",
") 	c #7CACDB",
"! 	c #6A9FD4",
"~ 	c #F4F8FC",
"{ 	c #F5F9FC",
"] 	c #6EA3D6",
"^ 	c #7CAFDF",
"/ 	c #78ADDE",
"( 	c #247BCB",
"_ 	c #136BBF",
": 	c #5F9BD4",
"< 	c #649FD6",
"[ 	c #64A0D7",
"} 	c #7DACD9",
"| 	c #FFFFFF",
"1 	c #87B3DE",
"2 	c #64A2DC",
"3 	c #64A3DC",
"4 	c #5FA0DC",
"5 	c #1475CE",
"6 	c #3482CC",
"7 	c #4C91D3",
"8 	c #4C92D4",
"9 	c #4C93D5",
"0 	c #428BCF",
"a 	c #A9C8E8",
"b 	c #ACCBE8",
"c 	c #448DD1",
"d 	c #4C96DA",
"e 	c #4C97DB",
"f 	c #4C98DC",
"g 	c #348BD9",
"h 	c #0568C4",
"i 	c #3485D0",
"j 	c #3587D2",
"k 	c #3587D3",
"l 	c #3284D2",
"m 	c #287DCC",
"n 	c #257ACA",
"o 	c #257BCB",
"p 	c #3287D5",
"q 	c #358CDA",
"r 	c #358DDB",
"s 	c #358EDB",
"t 	c #348DDD",
"u 	c #0573D6",
"v 	c #0069C8",
"w 	c #066ECB",
"x 	c #1677CF",
"y 	c #1D7CD2",
"z 	c #1674CB",
"A 	c #1676CF",
"B 	c #1D81DA",
"C 	c #1D82DB",
"D 	c #167FDB",
"E 	c #0677DA",
"F 	c #0075DB",
"G 	c #006CCD",
"H 	c #006DCF",
"I 	c #006ED0",
"J 	c #0170D2",
"K 	c #026FD1",
"L 	c #0167C7",
"M 	c #016ECF",
"N 	c #0276DA",
"O 	c #0177DC",
"P 	c #0077DD",
"Q 	c #0078DF",
"R 	c #0079E0",
"S 	c #0070D3",
"T 	c #0071D4",
"U 	c #0072D6",
"V 	c #0073D7",
"W 	c #0074D8",
"X 	c #006ECF",
"Y 	c #006FD2",
"Z 	c #0078E0",
"` 	c #0079E1",
" .	c #007AE2",
"..	c #007BE4",
"+.	c #007CE4",
"@.	c #0074DA",
"#.	c #0076DC",
"$.	c #0077DE",
"%.	c #007CE5",
"&.	c #007DE6",
"*.	c #007EE8",
"=.	c #007FE9",
"-.	c #006DD0",
";.	c #006FD3",
">.	c #0081EC",
",.	c #0081EB",
"'.	c #007CE6",
").	c #007DE7",
"!.	c #027FE8",
"~.	c #1A83DF",
"{.	c #3490E1",
"].	c #499BE2",
"^.	c #318FE1",
"/.	c #1487EA",
"(.	c #0282EC",
"_.	c #0483EC",
"                                ",
"            . + @ #             ",
"        $ % & * = - ; >         ",
"      , ' ) ! ~ { ] ^ / (       ",
"    _ : < [ } | | 1 2 3 4 5     ",
"    6 7 8 9 0 a b c d e f g     ",
"  h i j k l m n o p q r s t u   ",
"  v w x y z | | | A B C D E F   ",
"  G H I J K L | | M N O P Q R   ",
"  S T U V W X | | Y Z `  ...+.  ",
"    @.F #.$.S | | U %.&.*.=.    ",
"    Q R  .Z -.| | ;.&.>.>.,.    ",
"      '.).@.| | | | P >.>.      ",
"        ,.!.~.{.].^./.>.        ",
"            >.(._.,.            ",
"                                "};
