/* XPM */
static const char * add_xpm[] = {
"16 16 93 2",
"  	c None",
". 	c #7CC970",
"+ 	c #40B128",
"@ 	c #43B427",
"# 	c #A1D990",
"$ 	c #57B848",
"% 	c #A0D98E",
"& 	c #9AD686",
"* 	c #6BC352",
"= 	c #24A113",
"- 	c #9EDE86",
"; 	c #A1DF8A",
"> 	c #42B326",
", 	c #1F9F10",
"' 	c #91D77C",
") 	c #92D97E",
"! 	c #3CB023",
"~ 	c #1B9C0E",
"{ 	c #83D173",
"] 	c #84D174",
"^ 	c #37AC20",
"/ 	c #62B662",
"( 	c #41A841",
"_ 	c #068F04",
": 	c #0C9208",
"< 	c #12960B",
"[ 	c #17990D",
"} 	c #79CC6B",
"| 	c #7BCD6C",
"1 	c #30A91B",
"2 	c #37AD1E",
"3 	c #40B223",
"4 	c #49B828",
"5 	c #7CCD61",
"6 	c #9ADB80",
"7 	c #048604",
"8 	c #68BA63",
"9 	c #68BD60",
"0 	c #67C05E",
"a 	c #68C25F",
"b 	c #6DC561",
"c 	c #63C353",
"d 	c #65C454",
"e 	c #75C864",
"f 	c #77CA68",
"g 	c #7ECA74",
"h 	c #6BBF65",
"i 	c #5DB553",
"j 	c #58C031",
"k 	c #008200",
"l 	c #46A742",
"m 	c #4AAD46",
"n 	c #4FB549",
"o 	c #5DBC55",
"p 	c #62BE56",
"q 	c #57BB47",
"r 	c #5ABD47",
"s 	c #6AC359",
"t 	c #60BD4F",
"u 	c #39AA2C",
"v 	c #2AA123",
"w 	c #3BA730",
"x 	c #4FBB2A",
"y 	c #008300",
"z 	c #008700",
"A 	c #008B00",
"B 	c #058F02",
"C 	c #0B9205",
"D 	c #43B12E",
"E 	c #4EB734",
"F 	c #209F11",
"G 	c #28A415",
"H 	c #2FA819",
"I 	c #37AD1D",
"J 	c #40B322",
"K 	c #079004",
"L 	c #45B32D",
"M 	c #56BD35",
"N 	c #1C9C0E",
"O 	c #048E02",
"P 	c #40B028",
"Q 	c #58BE35",
"R 	c #179A0C",
"S 	c #018C00",
"T 	c #2AA419",
"U 	c #3FB126",
"V 	c #13970A",
"W 	c #1F9810",
"X 	c #0E9308",
"Y 	c #199914",
"Z 	c #1F9319",
"` 	c #56AB1D",
" .	c #33A332",
"                                ",
"            . + @ #             ",
"            $ % & *             ",
"            = - ; >             ",
"            , ' ) !             ",
"            ~ { ] ^             ",
"  / ( _ : < [ } | 1 2 3 4 5 6   ",
"  7 8 9 0 a b c d e f g h i j   ",
"  k l m n o p q r s t u v w x   ",
"    y z A B C D E F G H I J     ",
"            K L M N             ",
"            O P Q R             ",
"            S T U V             ",
"            W X Y Z             ",
"            ` X  .              ",
"                                "};
