/* XPM */
static const char * asterisk_xpm[] = {
"16 16 114 2",
"  	c None",
". 	c #FD9A00",
"+ 	c #FC9900",
"@ 	c #F59101",
"# 	c #F38F01",
"$ 	c #FDA416",
"% 	c #FEB643",
"& 	c #FEBB4E",
"* 	c #F99601",
"= 	c #FDB84B",
"- 	c #F9A833",
"; 	c #EF8B02",
"> 	c #FDA51E",
", 	c #FEC05B",
"' 	c #FFC463",
") 	c #F89B0F",
"! 	c #F69C1A",
"~ 	c #FFBC54",
"{ 	c #FCB446",
"] 	c #ED8902",
"^ 	c #FBAA2D",
"/ 	c #FFC461",
"( 	c #FBAE38",
"_ 	c #F49001",
": 	c #F28E01",
"< 	c #F9AB37",
"[ 	c #FFBB52",
"} 	c #F49D24",
"| 	c #F79301",
"1 	c #FAAB32",
"2 	c #FEC05A",
"3 	c #F9AC38",
"4 	c #FFBC53",
"5 	c #F6A22C",
"6 	c #EB8602",
"7 	c #FEBD56",
"8 	c #FEB94E",
"9 	c #FFBA4E",
"0 	c #FBB142",
"a 	c #EA8502",
"b 	c #F99F17",
"c 	c #F69301",
"d 	c #F18D01",
"e 	c #FCB445",
"f 	c #FFB949",
"g 	c #FFB747",
"h 	c #FBAF3F",
"i 	c #E88302",
"j 	c #E68103",
"k 	c #E47E03",
"l 	c #E27C03",
"m 	c #E68611",
"n 	c #DD7704",
"o 	c #F89401",
"p 	c #FDBA50",
"q 	c #FFC76B",
"r 	c #FDBB53",
"s 	c #FBB54A",
"t 	c #FBB349",
"u 	c #FFBD52",
"v 	c #FFB847",
"w 	c #FFB543",
"x 	c #FFB848",
"y 	c #FAAF43",
"z 	c #F8AA3B",
"A 	c #FBB144",
"B 	c #FFB74B",
"C 	c #F6A536",
"D 	c #D87104",
"E 	c #F69201",
"F 	c #F38E01",
"G 	c #F18D02",
"H 	c #FAAE3E",
"I 	c #FFB746",
"J 	c #FFB542",
"K 	c #FAAD3C",
"L 	c #E37E03",
"M 	c #E17B03",
"N 	c #DF7903",
"O 	c #DC7504",
"P 	c #D77004",
"Q 	c #D26B05",
"R 	c #FEB950",
"S 	c #FCB242",
"T 	c #F9AB3C",
"U 	c #F4A12E",
"V 	c #FAB247",
"W 	c #E57F03",
"X 	c #F3A232",
"Y 	c #FFB648",
"Z 	c #EE9727",
"` 	c #DA7404",
" .	c #F19D28",
"..	c #FFBD55",
"+.	c #EF9825",
"@.	c #E07A03",
"#.	c #F29E2F",
"$.	c #FFB442",
"%.	c #E68C21",
"&.	c #F09821",
"*.	c #FEBB52",
"=.	c #FCB44A",
"-.	c #E28518",
";.	c #FFB340",
">.	c #F9AA3B",
",.	c #D57313",
"'.	c #E68003",
").	c #F3A132",
"!.	c #EF9A2A",
"~.	c #D36C05",
"{.	c #F2A137",
"].	c #E38824",
"^.	c #C65E06",
"/.	c #C96206",
"                                ",
"        . +         @ #         ",
"      $ % & *     @ = - ;       ",
"      > , ' )     ! ~ { ]       ",
"        ^ / ( _ : < [ }         ",
"        | 1 2 : 3 4 5 6         ",
"          # 7 8 9 0 a           ",
"* b c @ # d e f g h i j k l m n ",
"o p q r s t u v w x y z A B C D ",
"E _ F G ; ] H I J K L M N O P Q ",
"          6 R S I T M           ",
"        6 U V W X Y Z `         ",
"      a  ...+.  @.#.$.%.        ",
"      &.*.=.l     -.;.>.,.      ",
"      '.).!.      ~.{.].^.      ",
"        M N         /.          "};
