/* XPM */
static const char * bar_spacing_xpm[] = {
"16 16 106 2",
"  	c None",
". 	c #277AF0",
"+ 	c #2679F0",
"@ 	c #267BF1",
"# 	c #1570F0",
"$ 	c #1370F0",
"% 	c #2579F1",
"& 	c #4C93F6",
"* 	c #3886F4",
"= 	c #146EF0",
"- 	c #0A68F0",
"; 	c #7AAFFA",
"> 	c #79AFFA",
", 	c #0B6AF1",
"' 	c #126FF0",
") 	c #3685F2",
"! 	c #4A91F5",
"~ 	c #156FF0",
"{ 	c #69A5F8",
"] 	c #136FF0",
"^ 	c #257AF1",
"/ 	c #287CF3",
"( 	c #5B9CF6",
"_ 	c #2579F2",
": 	c #4C93F5",
"< 	c #3E8AF4",
"[ 	c #3B89F5",
"} 	c #BABCC4",
"| 	c #C0C0C4",
"1 	c #BEBFC4",
"2 	c #BFC0C5",
"3 	c #C0C0C5",
"4 	c #BEBEC3",
"5 	c #ACACB1",
"6 	c #ACACB2",
"7 	c #ADADB2",
"8 	c #A9ABB2",
"9 	c #2D80F4",
"0 	c #2D81F4",
"a 	c #AEB0B9",
"b 	c #F9F9F9",
"c 	c #F1F1F1",
"d 	c #F4F4F4",
"e 	c #F3F3F2",
"f 	c #B4B4B9",
"g 	c #A0A0A5",
"h 	c #FEFEFE",
"i 	c #EEEEEE",
"j 	c #9DA0A8",
"k 	c #1F77F4",
"l 	c #1F77F3",
"m 	c #A4A7B0",
"n 	c #FBFBFB",
"o 	c #F6F6F6",
"p 	c #F3F3F3",
"q 	c #F0F0EF",
"r 	c #ABABB0",
"s 	c #98989D",
"t 	c #FFFFFF",
"u 	c #F0F0F0",
"v 	c #E5E5E5",
"w 	c #94979F",
"x 	c #106EF3",
"y 	c #106EF2",
"z 	c #9B9EA8",
"A 	c #FCFCFC",
"B 	c #F2F2F2",
"C 	c #F2F2F1",
"D 	c #A2A2A7",
"E 	c #9B9BA1",
"F 	c #979BA3",
"G 	c #0567F3",
"H 	c #0667F3",
"I 	c #92969F",
"J 	c #9A9A9F",
"K 	c #EDEDED",
"L 	c #E7E7E7",
"M 	c #9D9FA7",
"N 	c #0566F2",
"O 	c #9599A3",
"P 	c #F7F7F7",
"Q 	c #F5F5F5",
"R 	c #9D9DA2",
"S 	c #A3A3A8",
"T 	c #F8F8F7",
"U 	c #ECECEC",
"V 	c #A1A3AB",
"W 	c #0567F2",
"X 	c #9B9EA7",
"Y 	c #FBFBFC",
"Z 	c #A2A2A6",
"` 	c #ADADAF",
" .	c #AFAFB1",
"..	c #AEAEB0",
"+.	c #AEAEAF",
"@.	c #A9ABB0",
"#.	c #0568F1",
"$.	c #0567F1",
"%.	c #9FA2AA",
"&.	c #A5A5AA",
"*.	c #0969F0",
"=.	c #0668F2",
"-.	c #AEAEB1",
";.	c #ADADB0",
">.	c #0968EF",
",.	c #0968EE",
"      .                 +       ",
"      @ #             $ %       ",
"  & * @ = - ;     > , ' % ) !   ",
"      @ ~   {     {   ] ^       ",
"      /     (     (     _       ",
"            :     :             ",
"            <     [ } | 1 2 3 4 ",
"5 6 5 5 7 8 9     0 a b c d e f ",
"g h i c i j k     l m n o p q r ",
"s t u c v w x     y z A b B C D ",
"E t c i v F G     H I n A p p J ",
"g t p K L M N     G O n t P Q R ",
"S t T C U V N     W X Y t n P Z ",
"`  .....+.@.#.    $.%.t t t t &.",
"            *.    =.8 -.-.-.-.;.",
"            >.    ,.            "};
