/* XPM */
static const char * cancel_xpm[] = {
"16 16 116 2",
"  	c None",
". 	c #D4AAAA",
"+ 	c #D59B9B",
"@ 	c #C79595",
"# 	c #DEA3A3",
"$ 	c #E2A8A8",
"% 	c #DF9393",
"& 	c #E59A9A",
"* 	c #D79696",
"= 	c #D59696",
"- 	c #DC9999",
"; 	c #C69999",
"> 	c #CC9C9C",
", 	c #D58888",
"' 	c #DA8C8C",
") 	c #E49A9A",
"! 	c #E69898",
"~ 	c #CC7E7E",
"{ 	c #C97C7C",
"] 	c #BC8B8B",
"^ 	c #C28F8F",
"/ 	c #D58F8F",
"( 	c #C99494",
"_ 	c #CE7F7F",
": 	c #D47C7C",
"< 	c #DD9090",
"[ 	c #E18D8D",
"} 	c #D27D7D",
"| 	c #B67777",
"1 	c #CC8383",
"2 	c #BD8686",
"3 	c #B78686",
"4 	c #C68B8B",
"5 	c #C47878",
"6 	c #C56B6B",
"7 	c #D48383",
"8 	c #D58484",
"9 	c #CD7979",
"0 	c #B37373",
"a 	c #AC7979",
"b 	c #BA7C7C",
"c 	c #BE7C7C",
"d 	c #BD8383",
"e 	c #BA7474",
"f 	c #B45D5D",
"g 	c #BF6D6D",
"h 	c #CF7A7A",
"i 	c #C67474",
"j 	c #B16D6D",
"k 	c #A75D5D",
"l 	c #AC7171",
"m 	c #AE6B6B",
"n 	c #A65252",
"o 	c #B05252",
"p 	c #BB6F6F",
"q 	c #B96F6F",
"r 	c #904444",
"s 	c #731414",
"t 	c #883434",
"u 	c #924545",
"v 	c #A85050",
"w 	c #B96D6D",
"x 	c #731B1B",
"y 	c #650000",
"z 	c #711010",
"A 	c #A34444",
"B 	c #B46969",
"C 	c #681B1B",
"D 	c #630000",
"E 	c #6D0202",
"F 	c #760303",
"G 	c #770303",
"H 	c #822B2B",
"I 	c #B35D5D",
"J 	c #701A1A",
"K 	c #500000",
"L 	c #570000",
"M 	c #610404",
"N 	c #8E4141",
"O 	c #944343",
"P 	c #630505",
"Q 	c #7D0000",
"R 	c #8F0606",
"S 	c #8F2929",
"T 	c #561919",
"U 	c #540000",
"V 	c #5D0000",
"W 	c #560202",
"X 	c #883F3F",
"Y 	c #954141",
"Z 	c #7F0303",
"` 	c #710000",
" .	c #7E0000",
"..	c #A01919",
"+.	c #6B1919",
"@.	c #4B0000",
"#.	c #410000",
"$.	c #550404",
"%.	c #873E3E",
"&.	c #8E3F3F",
"*.	c #750505",
"=.	c #8C0000",
"-.	c #8A0000",
";.	c #891818",
">.	c #5A2121",
",.	c #560000",
"'.	c #4C0202",
").	c #7A3D3D",
"!.	c #983E3E",
"~.	c #7E0303",
"{.	c #740000",
"].	c #932020",
"^.	c #5B2525",
"/.	c #803B3B",
"(.	c #8C3C3C",
"_.	c #8B2424",
"    .                     +     ",
"  @ # $                 % & *   ",
"  = - ; >             , ' ) ! ~ ",
"  { ] ^ / (         _ : < [ }   ",
"    | 1 2 3 4     5 6 7 8 9     ",
"      0 a b c d e f g h i       ",
"        j k l m n o p q         ",
"          r s t u v w           ",
"          x y y z A B           ",
"        C D D E F G H I         ",
"      J K L M N O P Q R S       ",
"    T U V W X     Y Z `  ...    ",
"  +.@.#.$.%.        &.*.=.-.;.  ",
"  >.,.'.).            !.~.{.].  ",
"    ^./.                (._.    ",
"                                "};
