/* XPM */
static const char * chart_xpm[] = {
"16 16 189 2",
"  	c None",
". 	c #BEC0BC",
"+ 	c #D2D4D0",
"@ 	c #CDCFCB",
"# 	c #CED0CB",
"$ 	c #CBCDC9",
"% 	c #CFD1CD",
"& 	c #D2D4CF",
"* 	c #D2D3CF",
"= 	c #D0D2CE",
"- 	c #D1D3CF",
"; 	c #D1D3CE",
"> 	c #CFD2CD",
", 	c #B7B8B5",
"' 	c #CBCDCA",
") 	c #878985",
"! 	c #868884",
"~ 	c #636461",
"{ 	c #555754",
"] 	c #60625F",
"^ 	c #90928D",
"/ 	c #D6DAD3",
"( 	c #D3D7D0",
"_ 	c #CED4C8",
": 	c #84BB50",
"< 	c #B3CB9C",
"[ 	c #C6C8C4",
"} 	c #CACBC8",
"| 	c #9EA09C",
"1 	c #888A86",
"2 	c #898B87",
"3 	c #7C7E7A",
"4 	c #B1B4AE",
"5 	c #A4A7A1",
"6 	c #D7DAD4",
"7 	c #D4D7D1",
"8 	c #D7DAD3",
"9 	c #91C063",
"0 	c #75D01C",
"a 	c #74CC1F",
"b 	c #8AB95D",
"c 	c #C7C9C6",
"d 	c #D5D8D2",
"e 	c #D2D5CF",
"f 	c #D0D3CD",
"g 	c #A6C28B",
"h 	c #7DCE2E",
"i 	c #8AD93D",
"j 	c #85D734",
"k 	c #88C151",
"l 	c #C7C8C5",
"m 	c #E0E3DE",
"n 	c #DFE1DC",
"o 	c #DBDED8",
"p 	c #DCE0D8",
"q 	c #C6D5B7",
"r 	c #C9D7BB",
"s 	c #6FC31E",
"t 	c #73D216",
"u 	c #76D31C",
"v 	c #7FBE42",
"w 	c #C5C6C4",
"x 	c #E3E6E1",
"y 	c #E1E4DF",
"z 	c #DDE0DB",
"A 	c #A6C984",
"B 	c #6CC218",
"C 	c #97C36D",
"D 	c #7ABF38",
"E 	c #72D115",
"F 	c #76D31B",
"G 	c #7DBD3F",
"H 	c #C3C5C2",
"I 	c #D9DBD6",
"J 	c #D7D9D4",
"K 	c #D4D6D1",
"L 	c #C4CEBA",
"M 	c #7DC537",
"N 	c #8EDA44",
"O 	c #84D633",
"P 	c #87D838",
"Q 	c #86C04D",
"R 	c #C5C6C3",
"S 	c #E8EAE6",
"T 	c #E7E9E5",
"U 	c #E2E5E0",
"V 	c #8FC45D",
"W 	c #73D217",
"X 	c #77D31C",
"Y 	c #79BC39",
"Z 	c #E9EAE7",
"` 	c #E3E5E1",
" .	c #C7D9B6",
"..	c #6FC919",
"+.	c #77D31D",
"@.	c #78D31E",
"#.	c #79D420",
"$.	c #78D41F",
"%.	c #7BD522",
"&.	c #7DD625",
"*.	c #7BBD3B",
"=.	c #C4C5C2",
"-.	c #E1E2DE",
";.	c #C5D3B6",
">.	c #85B854",
",.	c #D6DCD0",
"'.	c #87C44D",
").	c #84D732",
"!.	c #8CDA40",
"~.	c #85D934",
"{.	c #8EDB42",
"].	c #87DA36",
"^.	c #8FDD44",
"/.	c #88DB38",
"(.	c #91DE46",
"_.	c #8CDC3D",
":.	c #82C047",
"<.	c #C5C7C4",
"[.	c #D6E3C8",
"}.	c #74C428",
"|.	c #74D219",
"1.	c #72BC2C",
"2.	c #74D11B",
"3.	c #78D51D",
"4.	c #79D61E",
"5.	c #7AD61F",
"6.	c #7BD720",
"7.	c #7BD822",
"8.	c #7CD823",
"9.	c #7DD924",
"0.	c #7EDA25",
"a.	c #81DB2A",
"b.	c #77BD35",
"c.	c #A8B897",
"d.	c #7AC72F",
"e.	c #79D61F",
"f.	c #7AD620",
"g.	c #7BD721",
"h.	c #7CD822",
"i.	c #7DD823",
"j.	c #7ED924",
"k.	c #7FDA26",
"l.	c #80DB28",
"m.	c #81DB29",
"n.	c #82DC2A",
"o.	c #84DD2E",
"p.	c #77BD33",
"q.	c #77B937",
"r.	c #98E051",
"s.	c #8DDD40",
"t.	c #97E04F",
"u.	c #8FDE41",
"v.	c #98E151",
"w.	c #91DF43",
"x.	c #9AE253",
"y.	c #92E045",
"z.	c #9BE355",
"A.	c #93E147",
"B.	c #9DE457",
"C.	c #95E249",
"D.	c #9EE558",
"E.	c #97E44D",
"F.	c #84C148",
"G.	c #74BB30",
"H.	c #80DB27",
"I.	c #81DB28",
"J.	c #83DC2B",
"K.	c #83DD2C",
"L.	c #84DE2D",
"M.	c #85DE2E",
"N.	c #86DF2F",
"O.	c #87E030",
"P.	c #88E031",
"Q.	c #88E132",
"R.	c #89E133",
"S.	c #8AE235",
"T.	c #76BD30",
"U.	c #6DB329",
"V.	c #88DB37",
"W.	c #88DB36",
"X.	c #88DC36",
"Y.	c #89DC37",
"Z.	c #89DD38",
"`.	c #8ADD39",
" +	c #8BDE39",
".+	c #8BDE3A",
"++	c #8BDF3A",
"@+	c #8BDF39",
"#+	c #6DB528",
". + @ # $ % @ & * = - ; > = = , ",
"' ) ! ~ { ] ^ / / ( / / _ : < [ ",
"} | 1 2 3 4 5 6 6 7 6 8 9 0 a b ",
"c d e f e e f e e f e g h i j k ",
"l m n o n n o p q o r s t t u v ",
"w x y z y y z A B C D E t t F G ",
"H I J K J J L M j N O N j N P Q ",
"R S T U T T V E t t t t t W X Y ",
"R Z T ` T  ...+.F @.+.#.$.%.&.*.",
"=.-.;.>.,.'.).!.~.{.].^./.(._.:.",
"<.[.}.|.1.2.3.4.5.6.7.8.9.0.a.b.",
"c.d.3.e.f.g.h.i.j.0.k.l.m.n.o.p.",
"q.r.s.t.u.v.w.x.y.z.A.B.C.D.E.F.",
"G.m.H.I.n.J.K.L.M.N.O.P.Q.R.S.T.",
"U.V.W.X.Y.Z.`. +.+.+++++++@+++#+",
"                                "};
