/* XPM */
static const char * color_xpm[] = {
"16 16 124 2",
"  	c None",
". 	c #ED19E0",
"+ 	c #ED16E0",
"@ 	c #EF13E4",
"# 	c #FA08F8",
"$ 	c #70C100",
"% 	c #70BD00",
"& 	c #72BD00",
"* 	c #7EBC00",
"= 	c #00D457",
"- 	c #00D253",
"; 	c #00D355",
"> 	c #ED93DB",
", 	c #EF90DF",
"' 	c #FA05F8",
") 	c #6FC000",
"! 	c #A5E335",
"~ 	c #A7E234",
"{ 	c #7DBB00",
"] 	c #6CF29E",
"^ 	c #00D254",
"/ 	c #F014E0",
"( 	c #F066DC",
"_ 	c #F263E0",
": 	c #FC04F6",
"< 	c #70C200",
"[ 	c #85CE0F",
"} 	c #86CE0E",
"| 	c #7DBE00",
"1 	c #00D753",
"2 	c #23E26D",
"3 	c #00D752",
"4 	c #FF0BDD",
"5 	c #FF08DD",
"6 	c #FF06E0",
"7 	c #FF01EF",
"8 	c #77CC00",
"9 	c #77CA00",
"0 	c #78CA00",
"a 	c #7ECC00",
"b 	c #00EA46",
"c 	c #00EA43",
"d 	c #00EA44",
"e 	c #2CADFF",
"f 	c #2AABFF",
"g 	c #2AADFF",
"h 	c #2BB6FF",
"i 	c #3B45D1",
"j 	c #3A45D0",
"k 	c #3946CF",
"l 	c #304FCC",
"m 	c #B200FF",
"n 	c #AF00FF",
"o 	c #B100FF",
"p 	c #2EA9FF",
"q 	c #64D5FF",
"r 	c #64D7FF",
"s 	c #2CB3FF",
"t 	c #3C46CC",
"u 	c #5E81FF",
"v 	c #5D82FF",
"w 	c #2F4FC8",
"x 	c #E190FE",
"y 	c #AD00FF",
"z 	c #2BA9FF",
"A 	c #3EB9FF",
"B 	c #3EBAFF",
"C 	c #2AB3FF",
"D 	c #3A47CF",
"E 	c #455DE2",
"F 	c #445EE2",
"G 	c #2E4FCB",
"H 	c #AE00FF",
"I 	c #BE2FFF",
"J 	c #AC00FF",
"K 	c #1AA6FF",
"L 	c #19A6FF",
"M 	c #19A8FF",
"N 	c #1AB2FF",
"O 	c #2C49E0",
"P 	c #2C4ADF",
"Q 	c #2A4ADF",
"R 	c #224DDD",
"S 	c #A800FF",
"T 	c #A500FF",
"U 	c #A600FF",
"V 	c #FFD200",
"W 	c #FFD100",
"X 	c #FFD400",
"Y 	c #FFE100",
"Z 	c #DC3D23",
"` 	c #DC3E21",
" .	c #DB3D21",
"..	c #D93522",
"+.	c #FFAB21",
"@.	c #FFA920",
"#.	c #FFAA21",
"$.	c #FFEC9B",
"%.	c #FFEF9B",
"&.	c #FFE000",
"*.	c #D93C24",
"=.	c #FF6154",
"-.	c #FE6054",
";.	c #D63324",
">.	c #FFA823",
",.	c #FECB5D",
"'.	c #FFA623",
").	c #FFDB39",
"!.	c #FFDD39",
"~.	c #D93D25",
"{.	c #E74B36",
"].	c #E64936",
"^.	c #D63424",
"/.	c #FFA824",
"(.	c #FFB439",
"_.	c #FFA724",
":.	c #FFD203",
"<.	c #FFD101",
"[.	c #DA3D26",
"}.	c #DA3F25",
"|.	c #D93E25",
"1.	c #D73526",
"2.	c #FFA925",
"3.	c #FFA825",
"  . + @ #   $ % & *   = - - ;   ",
"  + > , '   ) ! ~ {   ; ] ] ^   ",
"  / ( _ :   < [ } |   1 2 2 3   ",
"  4 5 6 7   8 9 0 a   b c c d   ",
"                                ",
"  e f g h   i j k l   m n n o   ",
"  p q r s   t u v w   n x x y   ",
"  z A B C   D E F G   H I I J   ",
"  K L M N   O P Q R   S T T U   ",
"                                ",
"  V W X Y   Z `  ...  +.@.@.#.  ",
"  W $.%.&.  *.=.-.;.  >.,.,.'.  ",
"  W ).!.&.  ~.{.].^.  /.(.(._.  ",
"  :.<.X Y   [.}.|.1.  2._._.3.  ",
"                                ",
"                                "};
