/* XPM */
static const char * configure_xpm[] = {
"16 16 86 1",
" 	c None",
".	c #CFCFCE",
"+	c #CDCECC",
"@	c #BFC0BD",
"#	c #AAABA8",
"$	c #DFDFDE",
"%	c #FEFEFE",
"&	c #EDEEED",
"*	c #969795",
"=	c #5A5B59",
"-	c #6F706E",
";	c #E9EAE8",
">	c #F7F7F6",
",	c #C4C4C3",
"'	c #F1F1F0",
")	c #D5D5D6",
"!	c #A0A19E",
"~	c #999A98",
"{	c #F0F1F0",
"]	c #F0F0EF",
"^	c #9D9E9C",
"/	c #8F908E",
"(	c #C5C6C3",
"_	c #727372",
":	c #787A7B",
"<	c #EAEAE9",
"[	c #BDBFBC",
"}	c #888887",
"|	c #DADBD9",
"1	c #6C6D6C",
"2	c #B8B9B7",
"3	c #858787",
"4	c #787B7C",
"5	c #3A3F41",
"6	c #B9B9BA",
"7	c #DADAD9",
"8	c #979795",
"9	c #B3B5B2",
"0	c #BABBB9",
"a	c #F3F2F1",
"b	c #DEDFDD",
"c	c #3C4042",
"d	c #6A6C6C",
"e	c #B1B3B2",
"f	c #DDDEDC",
"g	c #787877",
"h	c #131313",
"i	c #C0C0BF",
"j	c #C5C5C4",
"k	c #B5B5B5",
"l	c #FCFCFB",
"m	c #B9BAB9",
"n	c #4F504F",
"o	c #41403F",
"p	c #BBBBB9",
"q	c #989896",
"r	c #3A3B3A",
"s	c #C2C3C2",
"t	c #A5A5A4",
"u	c #B0B1AE",
"v	c #6D6E6C",
"w	c #171817",
"x	c #959694",
"y	c #B1B2B1",
"z	c #A2A4A0",
"A	c #585957",
"B	c #0E0E0E",
"C	c #656765",
"D	c #B4B5B3",
"E	c #989A96",
"F	c #5B5B5A",
"G	c #2B2B2B",
"H	c #525452",
"I	c #AEB0AB",
"J	c #9D9E9A",
"K	c #90928C",
"L	c #555656",
"M	c #626461",
"N	c #A3A5A1",
"O	c #4A4A49",
"P	c #90938D",
"Q	c #91938E",
"R	c #999B95",
"S	c #545553",
"T	c #898B86",
"U	c #7C7E79",
"          .+@#  ",
"         $%&*=  ",
"        -;>,    ",
"        -+')    ",
"        !~{]^  /",
"        (_:<[}|1",
"       23456789 ",
"      0abcdefgh ",
"     ijklmno    ",
"    pqrst       ",
"   uvwxy        ",
"  zABCD         ",
" EFGHI          ",
"JKLMNO          ",
"NPQRS           ",
" TU             "};
