/* XPM */
static const char *crosshair_xpm[]={
"16 16 3 1",
". c None",
"# c #000000",
"a c #dcdcdc",
".......#........",
"................",
".......#........",
"................",
".......#........",
"................",
".......#........",
"#.#.#.#.#a#.#.#.",
".......#........",
"................",
".......#........",
"................",
".......#........",
"................",
".......#........",
"................"};
