/* XPM */
static const char * datawindow_xpm[] = {
"16 16 31 1",
" 	c None",
".	c #000000",
"+	c #000000",
"@	c #000000",
"#	c #000000",
"$	c #000000",
"%	c #000000",
"&	c #000000",
"*	c #9F9FA3",
"=	c #A1A1A5",
"-	c #A5A5A9",
";	c #C3C3C6",
">	c #C7C7CB",
",	c #C8C8CA",
"'	c #C9C9CB",
")	c #C9C9CC",
"!	c #CACACC",
"~	c #CCCCCE",
"{	c #CFCFD1",
"]	c #D0D0D2",
"^	c #D2D2D4",
"/	c #D3D3D5",
"(	c #D8D8DA",
"_	c #D9D9DB",
":	c #E1E1E3",
"<	c #E2E2E4",
"[	c #E3E3E5",
"}	c #E7E7E9",
"|	c #FDFDFD",
"1	c #FEFEFE",
"2	c #FFFFFF",
"                ",
"                ",
" 2|||||||1~;2~> ",
" }:::::::<=*[=- ",
" (^^^^^^^^////_ ",
" ]))!!!))!!!))] ",
" 2222'2222'2222 ",
" 2222'2222'2222 ",
" {,,''',,''',,{ ",
" 2222'2222'2222 ",
" 2222'2222'2222 ",
" {,,''',,''',,{ ",
" 2222'2222'2222 ",
" 2222{2222{2222 ",
"                ",
"                "};
