/* XPM */
static const char * date_xpm[] = {
"16 16 108 2",
"  	c None",
". 	c #999999",
"+ 	c #9A9A9A",
"@ 	c #002C00",
"# 	c #FFFAFF",
"$ 	c #F4F3F4",
"% 	c #F8F6F9",
"& 	c #001900",
"* 	c #002B00",
"= 	c #002A00",
"- 	c #001B00",
"; 	c #FFFDFF",
"> 	c #FFFCFF",
", 	c #001C00",
"' 	c #003000",
") 	c #56C24E",
"! 	c #7F9B80",
"~ 	c #7A9C7B",
"{ 	c #7D9B7F",
"] 	c #9BE784",
"^ 	c #B1EF97",
"/ 	c #BFF8A2",
"( 	c #B5F29A",
"_ 	c #A1E98B",
": 	c #77977B",
"< 	c #809C82",
"[ 	c #53C449",
"} 	c #064006",
"| 	c #2CA728",
"1 	c #049201",
"2 	c #179C0A",
"3 	c #2AA915",
"4 	c #39AE1B",
"5 	c #4EBB27",
"6 	c #5AC42D",
"7 	c #4FBC27",
"8 	c #33AD13",
"9 	c #24A70E",
"0 	c #0E9A00",
"a 	c #009100",
"b 	c #2DA828",
"c 	c #0A420A",
"d 	c #003100",
"e 	c #2CA628",
"f 	c #018D00",
"g 	c #109609",
"h 	c #219F11",
"i 	c #30A919",
"j 	c #3EB120",
"k 	c #44B523",
"l 	c #3DB11D",
"m 	c #D6EFD1",
"n 	c #91D089",
"o 	c #CEE9CD",
"p 	c #57B355",
"q 	c #2DA728",
"r 	c #0A430A",
"s 	c #003300",
"t 	c #169A13",
"u 	c #008000",
"v 	c #008A00",
"w 	c #059100",
"x 	c #129902",
"y 	c #1C9E08",
"z 	c #1FA10A",
"A 	c #1C9F07",
"B 	c #089500",
"C 	c #008F00",
"D 	c #008500",
"E 	c #199C14",
"F 	c #09450A",
"G 	c #FFFFFF",
"H 	c #FEFEFE",
"I 	c #BDBDBD",
"J 	c #B3B3B3",
"K 	c #FFFFFE",
"L 	c #A64DFF",
"M 	c #FFFFFA",
"N 	c #FAFAFA",
"O 	c #FAFAF9",
"P 	c #FFFFF9",
"Q 	c #F9FAFA",
"R 	c #FDFDFD",
"S 	c #BEBEBE",
"T 	c #FFFFFC",
"U 	c #A84EFF",
"V 	c #FDFFF8",
"W 	c #F9F9F9",
"X 	c #F8F8F8",
"Y 	c #F8F8F7",
"Z 	c #FFFFF7",
"` 	c #F7F8F8",
" .	c #FCFCFC",
"..	c #BFBFBF",
"+.	c #B4B4B4",
"@.	c #A84FFF",
"#.	c #FCFFF6",
"$.	c #F7F7F7",
"%.	c #F6F6F6",
"&.	c #EDF3E5",
"*.	c #C2C3C3",
"=.	c #E8E8E8",
"-.	c #FBFBFB",
";.	c #FDFFF7",
">.	c #843BCD",
",.	c #7F7F7F",
"'.	c #E7EAE5",
").	c #7A7A7A",
"    . . +           . . .       ",
"  @ # $ % & * = * - ; $ > ,     ",
"' ) ! ~ { ] ^ / ( _ : ~ < [ }   ",
"' | 1 2 3 4 5 6 7 8 9 0 a b c   ",
"d e f g h i j k l m n o p q r   ",
"s t u v w x y z A B C D u E F   ",
"  G G G G G G G G G G G G G     ",
"  G H I G I G I G J K L M G     ",
"  G N G N G N G N G O P Q G     ",
"  H R S G S G S G J T U V G     ",
"  R W G X G X G X G Y Z ` G     ",
"   .N ..H ..H ..G +.P @.#.G     ",
"   .$.R %.R %.R %.R %.&.*.=.    ",
"  -.X ..-...-...-.+.;.>.G ,.    ",
"  G G G G G G G G G G '.).      ",
"                                "};
