/* XPM */
static const char * delete_xpm[] = {
"16 16 104 2",
"  	c None",
". 	c #8C0505",
"+ 	c #BD3E3E",
"@ 	c #C83E3E",
"# 	c #A80505",
"$ 	c #EFEFF0",
"% 	c #EBEBEC",
"& 	c #ECEDEE",
"* 	c #EEEEEF",
"= 	c #EFF0F0",
"- 	c #F1F1F1",
"; 	c #E0C4C4",
"> 	c #A91A1A",
", 	c #D98383",
"' 	c #DE8D8D",
") 	c #DA8282",
"! 	c #A21010",
"~ 	c #EBECEC",
"{ 	c #E7E8E8",
"] 	c #E9EAEB",
"^ 	c #EDEEEE",
"/ 	c #EEEFEF",
"( 	c #A23030",
"_ 	c #BB3834",
": 	c #F2DEDB",
"< 	c #D18372",
"[ 	c #CE7D71",
"} 	c #F1DBDA",
"| 	c #BB3333",
"1 	c #910000",
"2 	c #EAEBEB",
"3 	c #ECEDED",
"4 	c #EEEEEE",
"5 	c #E9E9E9",
"6 	c #9B0807",
"7 	c #C51E02",
"8 	c #BD6B46",
"9 	c #F8F0EC",
"0 	c #F9F1EC",
"a 	c #BA6446",
"b 	c #B91502",
"c 	c #9C0100",
"d 	c #F0F1F1",
"e 	c #F2F2F2",
"f 	c #DEDEDE",
"g 	c #AA0909",
"h 	c #BB2100",
"i 	c #BC6F42",
"j 	c #F9F2EB",
"k 	c #F9F3EB",
"l 	c #C47F42",
"m 	c #CA3300",
"n 	c #A70300",
"o 	c #F2F3F3",
"p 	c #F4F4F4",
"q 	c #E6E7E7",
"r 	c #A92A2A",
"s 	c #AF1304",
"t 	c #EFDACF",
"u 	c #D39142",
"v 	c #DEA642",
"w 	c #F4E2CF",
"x 	c #B82704",
"y 	c #9A0000",
"z 	c #F6F6F6",
"A 	c #F8F8F8",
"B 	c #C4A5A5",
"C 	c #B20807",
"D 	c #B31204",
"E 	c #BF3500",
"F 	c #CA5600",
"G 	c #BD3004",
"H 	c #B10500",
"I 	c #F3F4F4",
"J 	c #FAFAFA",
"K 	c #B79898",
"L 	c #AF2323",
"M 	c #B00606",
"N 	c #B60C08",
"O 	c #B32020",
"P 	c #FBFBFB",
"Q 	c #F9F9F9",
"R 	c #E5E5E5",
"S 	c #C8C8C8",
"T 	c #E8E8E8",
"U 	c #F5F6F6",
"V 	c #F5F5F5",
"W 	c #F7F7F7",
"X 	c #FCFCFC",
"Y 	c #FDFDFD",
"Z 	c #FEFEFE",
"` 	c #F6F7F7",
" .	c #DDDDDD",
"..	c #E1E2E2",
"+.	c #8F9595",
"@.	c #DADADA",
"#.	c #FAFAF9",
"$.	c #838989",
"%.	c #F3F3F3",
"&.	c #DCDDDD",
"*.	c #818888",
"=.	c #FFFFFF",
"-.	c #EFF0F1",
";.	c #8A9092",
"                    . + @ #     ",
"    $ % & * = - ; > , ' ' ) !   ",
"    ~ { ] ~ ^ / ( _ : < [ } | 1 ",
"    ^ 2 3 4 = 5 6 7 8 9 0 a b c ",
"    = 3 / d e f g h i j k l m n ",
"    - / d o p q r s t u v w x y ",
"    o d o p z A B C D E F G H   ",
"    I e p z A J p K L M N O     ",
"    p I z A J P P Q R S S T     ",
"    U V W Q J P X Y Y P Q Z     ",
"    ` z A J P X Y Z Z P A U     ",
"    W W Q J X Y Z Z V  ...+.    ",
"    W W J P X Y Z J @.#.$.      ",
"    W A J P X Y Z %.&.*.        ",
"    Q J P X Y Y =.-.;.          ",
"                                "};
