/* XPM */
static const char * edit_xpm[] = {
"16 16 121 2",
"  	c None",
". 	c #D44F48",
"+ 	c #D03838",
"@ 	c #FFFFFF",
"# 	c #FCFAF6",
"$ 	c #EFC747",
"% 	c #9F6426",
"& 	c #C62323",
"* 	c #BC0C0C",
"= 	c #FEFEFE",
"- 	c #E9EAEA",
"; 	c #EBECEC",
"> 	c #EDEEEE",
", 	c #EEEFEF",
"' 	c #F0F0F0",
") 	c #F0F1F1",
"! 	c #F1F2F2",
"~ 	c #F1F2F0",
"{ 	c #EBC95A",
"] 	c #A2821D",
"^ 	c #1F1F1F",
"/ 	c #713C03",
"( 	c #A31602",
"_ 	c #ECEDED",
": 	c #EFF0F0",
"< 	c #F1F1F1",
"[ 	c #F2F2F2",
"} 	c #F3F4F4",
"| 	c #F4F4F4",
"1 	c #ECD17A",
"2 	c #B89420",
"3 	c #262623",
"4 	c #4E3E0B",
"5 	c #D5A304",
"6 	c #EEEEEE",
"7 	c #F3F3F3",
"8 	c #F4F5F5",
"9 	c #F6F6F6",
"0 	c #EEDA9C",
"a 	c #D1AC33",
"b 	c #312E26",
"c 	c #3E3310",
"d 	c #D7A815",
"e 	c #F5F6F6",
"f 	c #F7F7F7",
"g 	c #F1E4B9",
"h 	c #E0BA44",
"i 	c #3E392B",
"j 	c #362F19",
"k 	c #CFA10E",
"l 	c #CDBF93",
"m 	c #F8F8F8",
"n 	c #F4EBCF",
"o 	c #EDCC60",
"p 	c #564F37",
"q 	c #2F2B1F",
"r 	c #C3970B",
"s 	c #CBB879",
"t 	c #C1C1C1",
"u 	c #F5F0DF",
"v 	c #F2D36F",
"w 	c #665C3E",
"x 	c #2A2823",
"y 	c #B58D0F",
"z 	c #D0B560",
"A 	c #B5B5B5",
"B 	c #E1E1E1",
"C 	c #F5F5F5",
"D 	c #F7F4EA",
"E 	c #F4D87F",
"F 	c #7C6F44",
"G 	c #262625",
"H 	c #A38113",
"I 	c #D6B549",
"J 	c #ADADAC",
"K 	c #D0D0D0",
"L 	c #F7F6F2",
"M 	c #F4D983",
"N 	c #92824E",
"O 	c #252525",
"P 	c #8E7218",
"Q 	c #DDB635",
"R 	c #A5A4A1",
"S 	c #BFBFBF",
"T 	c #FAFAFA",
"U 	c #FDFEFE",
"V 	c #E8DAB0",
"W 	c #A68F42",
"X 	c #76611C",
"Y 	c #E4B827",
"Z 	c #908D83",
"` 	c #747474",
" .	c #B2B2B2",
"..	c #C8C8C8",
"+.	c #D1D5D7",
"@.	c #DCCFB1",
"#.	c #9B8D62",
"$.	c #665620",
"%.	c #E9B81E",
"&.	c #9D9783",
"*.	c #696969",
"=.	c #ECECEC",
"-.	c #646565",
";.	c #E5E2DD",
">.	c #CAB679",
",.	c #BDA249",
"'.	c #C2A754",
").	c #C9BE9E",
"!.	c #D2D2D2",
"~.	c #AAAAAA",
"{.	c #6B6C6B",
"].	c #969491",
"^.	c #7D745A",
"/.	c #E5DCC5",
"(.	c #FBFBFA",
"_.	c #FBFBFB",
":.	c #C2C2C2",
"<.	c #E1DFDD",
"[.	c #FAFCFD",
"}.	c #CAD0D3",
"|.	c #656665",
"                          . +   ",
"    @ @ @ @ @ @ @ @ @ # $ % & * ",
"    = - ; > , ' ) ! ~ { ] ^ / ( ",
"    = _ > : < [ } | 1 2 3 4 5   ",
"    = 6 ' ! 7 8 9 0 a b c d     ",
"    = ' [ | e f g h i j k l     ",
"    @ ! | 9 m n o p q r s t     ",
"    @ } e m u v w x y z A B     ",
"    @ C f D E F G H I J K =     ",
"    @ 9 L M N O P Q R S T U     ",
"    @ f V W G X Y Z `  ...+.    ",
"    @ m @.#.$.%.&.*.=.= [ -.    ",
"    @ ;.>.,.'.).!.~.= 7 {.      ",
"    @ ].^./.(.= _.:.[ {.        ",
"    @ <.@ @ @ @ [.}.|.          ",
"                                "};

