/* XPM */
static const char * export_xpm[] = {
"16 16 83 1",
" 	c None",
".	c #000000",
"+	c #000000",
"@	c #646464",
"#	c #000000",
"$	c #000000",
"%	c #000000",
"&	c #000000",
"*	c #6D6D6D",
"=	c #000000",
"-	c #000000",
";	c #000000",
">	c #000000",
",	c #3F3F3F",
"'	c #646464",
")	c #D5D5D5",
"!	c #8C8F90",
"~	c #919494",
"{	c #D7D7D7",
"]	c #838887",
"^	c #848A89",
"/	c #6E6E6E",
"(	c #787878",
"_	c #CBCBCB",
":	c #EEEFEF",
"<	c #F6F7F7",
"[	c #959595",
"}	c #999999",
"|	c #9A9A9A",
"1	c #9C9C9C",
"2	c #9D9D9D",
"3	c #A8A8A8",
"4	c #A9A9A9",
"5	c #B1B1B1",
"6	c #B4B4B4",
"7	c #B5B5B5",
"8	c #BEBEBE",
"9	c #C0C0C0",
"0	c #C5C5C5",
"a	c #C8C8C8",
"b	c #CACACA",
"c	c #CDCDCD",
"d	c #D2D2D2",
"e	c #D4D4D4",
"f	c #D5D5D5",
"g	c #DCDCDC",
"h	c #DCDDDD",
"i	c #E0E1E1",
"j	c #E0E2E1",
"k	c #E2E2E2",
"l	c #E8E9E9",
"m	c #E8E9EA",
"n	c #EAEAEA",
"o	c #EAEBEB",
"p	c #EBECEC",
"q	c #ECEDED",
"r	c #EDEDED",
"s	c #EDEEEE",
"t	c #EEEFEF",
"u	c #EFF0F0",
"v	c #F0F0F0",
"w	c #F0F1F1",
"x	c #F1F1F1",
"y	c #F2F2F2",
"z	c #F2F3F3",
"A	c #F3F3F3",
"B	c #F3F4F4",
"C	c #F4F4F4",
"D	c #F4F5F5",
"E	c #F5F5F5",
"F	c #F5F6F6",
"G	c #F6F6F6",
"H	c #F6F7F7",
"I	c #F7F7F7",
"J	c #F8F8F8",
"K	c #F9F9F9",
"L	c #FAFAF9",
"M	c #FAFAFA",
"N	c #FBFBFB",
"O	c #FCFCFC",
"P	c #FDFDFD",
"Q	c #FEFEFE",
"R	c #FFFFFF",
"                ",
" nloqstuwwc}b   ",
" mloqstuwi5E[,  ",
" ppqtuxyAg0RI(  ",
" srtwyv8631IR{/ ",
" ttwzCCKOQRRRR)'",
" wwzDGGNPQRRRR)'",
" yyCGJE9742JR{/ ",
" BBGJMNNOkaRJ(  ",
" CEIMMNOPn7I[,  ",
" DGKMNOPQQe|_   ",
" FIMNOPQQGfj~   ",
" GJMNOPQNdL^    ",
" HJMNOPQCh]     ",
" <KNNOPR:!      ",
"                "};
