/* XPM */
static const char * find_xpm[] = {
"16 16 86 1",
" 	c None",
".	c #000000",
"+	c #000000",
"@	c #000000",
"#	c #000000",
"$	c #000000",
"%	c #000000",
"&	c #000000",
"*	c #000000",
"=	c #000000",
"-	c #000000",
";	c #000000",
">	c #000000",
",	c #000000",
"'	c #000000",
")	c #000000",
"!	c #000000",
"~	c #000000",
"{	c #000000",
"]	c #000000",
"^	c #010101",
"/	c #000000",
"(	c #040404",
"_	c #0A0A0A",
":	c #000000",
"<	c #101010",
"[	c #111111",
"}	c #0B0B0B",
"|	c #0E0E0E",
"1	c #121212",
"2	c #1B1B1B",
"3	c #1F1F1F",
"4	c #010101",
"5	c #131313",
"6	c #151515",
"7	c #161616",
"8	c #171717",
"9	c #181818",
"0	c #1B1B1B",
"a	c #1C1C1C",
"b	c #232323",
"c	c #242424",
"d	c #262523",
"e	c #272727",
"f	c #282828",
"g	c #2B2B2B",
"h	c #2C2C2C",
"i	c #2D2D2D",
"j	c #323232",
"k	c #343231",
"l	c #36281E",
"m	c #36281F",
"n	c #362A24",
"o	c #363636",
"p	c #38281F",
"q	c #392C25",
"r	c #3C3028",
"s	c #454240",
"t	c #482100",
"u	c #4A4A4A",
"v	c #4D4D4D",
"w	c #4E2909",
"x	c #4E4E4E",
"y	c #53331C",
"z	c #555352",
"A	c #565656",
"B	c #59483D",
"C	c #68584D",
"D	c #686868",
"E	c #695746",
"F	c #696969",
"G	c #6A6A6A",
"H	c #72706F",
"I	c #737373",
"J	c #766252",
"K	c #787878",
"L	c #817E7D",
"M	c #844007",
"N	c #845734",
"O	c #86430B",
"P	c #875B3B",
"Q	c #90490B",
"R	c #90613D",
"S	c #91623F",
"T	c #957254",
"U	c #AB917A",
"                ",
"                ",
"     ]>  >]     ",
"    3Gc  cG3    ",
"   /hi7117gh/   ",
"  2Igu8FA8ugI2  ",
" ~ovFjx54vjFvo~ ",
" 6DLKbe99ebKLD6 ",
"{znpBHaff0HBpnz{",
"_ryRPC8^^8CNSyq(",
":mtOQJ|  |JQMwl:",
",dETUs'  'sUTEd,",
" )[k}!    !}k<) ",
"                ",
"                ",
"                "};
