/* XPM */
static const char * group_xpm[] = {
"16 16 44 1",
" 	c None",
".	c #E6B36B",
"+	c #EFBC74",
"@	c #EBB871",
"#	c #EEB76A",
"$	c #FEC676",
"%	c #F7BF70",
"&	c #E4AD62",
"*	c #D8602E",
"=	c #E16D39",
"-	c #C87706",
";	c #EF910E",
">	c #EF9210",
",	c #C27306",
"'	c #C97A0D",
")	c #F19515",
"!	c #F19617",
"~	c #C5780C",
"{	c #CC7F14",
"]	c #F49A1C",
"^	c #F49A1D",
"/	c #C97D14",
"(	c #CD831C",
"_	c #F69E23",
":	c #CC821C",
"<	c #D08824",
"[	c #F8A229",
"}	c #D18924",
"|	c #D08B2C",
"1	c #FAA530",
"2	c #FAA52F",
"3	c #D48E2C",
"4	c #D1923C",
"5	c #FCAE42",
"6	c #FBAD41",
"7	c #D7973E",
"8	c #D0A263",
"9	c #FCC16F",
"0	c #FCC06E",
"a	c #DAAA68",
"b	c #BE9A69",
"c	c #E1B375",
"d	c #E1B374",
"e	c #C7A26E",
"                ",
" .++@           ",
" #$$$%########& ",
" *============* ",
"-;>>>>>>>>>>>>;,",
"')!!!!!!!!!!!!)~",
"{]^^^^^^^^^^^^]/",
"(______________:",
"<[[[[[[[[[[[[[[}",
"|122222222222213",
"4566666666666657",
"890000000000009a",
"bcddddddddddddce",
"                ",
"                ",
"                "};

