/* XPM */
static const char *help_xpm[]={
"16 16 134 2",
"Qt c None",
"#8 c #1a64f9",
".w c #276eff",
".l c #3d7dff",
"#E c #1a64fc",
"#b c #1d67ff",
".c c #3376ff",
".# c #397aff",
"ad c #1a64fd",
"#t c #1a65fe",
"#j c #1a66fe",
"#k c #3577ff",
".b c #3778ff",
".a c #3879ff",
"#T c #1a64fa",
"#9 c #226bff",
".R c #236bff",
".k c #2e73ff",
".d c #3b7cff",
"#0 c #1a64fa",
"#1 c #256dff",
".G c #266dff",
".v c #2a70ff",
".m c #3b7cff",
"#L c #1b65fc",
"ac c #2268f8",
".0 c #226bff",
"a. c #286dfb",
"#F c #3175ff",
".j c #3276ff",
".e c #3c7cff",
"#D c #2b70fd",
"#a c #2e73ff",
"#s c #3578fe",
"#i c #3678ff",
".i c #3c7cff",
"#u c #3d7eff",
"#S c #3e7cfa",
".1 c #407fff",
".f c #4180ff",
"ab c #4880f0",
"#l c #4883fe",
"#M c #4984fc",
"#c c #4a85fd",
"a# c #4b82f3",
"#7 c #4e85f5",
".Q c #4e87fc",
".H c #4f88fe",
".n c #538bfe",
"#2 c #548af7",
"## c #548dff",
"#r c #558eff",
".u c #568cfb",
"aa c #568cfc",
"#. c #568efe",
"#Z c #598cf4",
"#K c #5a90fe",
"#C c #5a91ff",
"#h c #5b91fd",
"#y c #5b91ff",
".g c #5c90fa",
"#G c #5c91fe",
".h c #5d90fa",
"#x c #5d92ff",
"#v c #5e93ff",
"#w c #5e94fe",
"#U c #5f90f6",
"#q c #5f94fd",
"#H c #6094ff",
"#B c #6396fe",
".x c #699afc",
"#m c #6c9dff",
"#O c #6d9cfc",
"#n c #6d9dff",
"#N c #6e9eff",
"#R c #709fff",
".F c #77a0f4",
"#W c #79a3f9",
"#V c #7ca8ff",
".Z c #7ea7f9",
"#d c #84aeff",
"#e c #86acf7",
"#6 c #87acf8",
"#3 c #87adfa",
".S c #87aefd",
"#Y c #88b0ff",
"#4 c #8cb2ff",
".2 c #94b7fe",
".7 c #9ab9f9",
".3 c #9abcff",
".4 c #a0bffe",
"#5 c #a6c3ff",
".o c #a9c5fd",
".9 c #aac5fd",
".Y c #aac6fe",
"#J c #acc7ff",
".T c #b0caff",
".6 c #b5ceff",
"#I c #b6cdfc",
".U c #b7cdfa",
".t c #bbd0f9",
".I c #bcd2fe",
".J c #bed2fb",
"#P c #bfd0f4",
".P c #c2d6fe",
"#o c #c5d4f2",
".W c #c7d7f8",
"#Q c #c8d8fa",
".z c #cadaf9",
".O c #cfdefc",
".y c #d0dffe",
".D c #d4e0f8",
".E c #d6e4fe",
"#p c #d7e3fd",
".r c #d8e2f8",
"#g c #d9e5fd",
".q c #dae4f8",
".8 c #dce4f6",
".A c #dce6f8",
"#f c #dde6f7",
".s c #dde7fb",
".X c #dee9ff",
".5 c #deeaff",
".p c #e2ebfe",
".M c #e2ecff",
".L c #eaf1ff",
"#z c #ebeff8",
".K c #edf2fb",
".C c #eef2fc",
".V c #f0f5ff",
"#A c #f8faff",
".N c #fcfdff",
"#X c #fdfeff",
".B c #ffffff",
"QtQtQtQtQtQt.#.a.b.cQtQtQtQtQtQt",
"QtQtQtQt.d.e.f.g.h.i.j.kQtQtQtQt",
"QtQt.l.m.n.o.p.q.r.s.t.u.v.wQtQt",
"QtQt.m.x.y.z.A.B.B.C.D.E.F.GQtQt",
"Qt.d.H.I.J.K.B.L.M.N.B.O.P.Q.RQt",
"Qt.e.S.T.U.B.V.T.T.W.B.X.Y.Z.0Qt",
".#.1.2.3.4.5.6.3.7.8.B.9#.###a#b",
".a#c#d#d#d#d#d#e#f.B#g#h#####i#j",
"#k#l#m#m#m#m#n#o.B#p#q#r#r#r#s#t",
".c#u#v#w#v#x#y#z#A#B#C#C#C#C#D#E",
"Qt#F#G#H#H#H#H#I#J#H#H#H#H#K#LQt",
"Qt.k#M#N#N#N#O#P#Q#R#N#N#N#S#TQt",
"QtQt.v#U#V#V#W#X.B#Y#V#V#Z#0QtQt",
"QtQt.w#1#2#3#4#5#J#4#6#7#0#8QtQt",
"QtQtQtQt#9a.a#aa.uabac#TQtQtQtQt",
"QtQtQtQtQtQt#b#jad#EQtQtQtQtQtQt"};
