/* XPM */
static const char *horizontal_xpm[]={
"16 16 2 1",
". c None",
"# c #303030",
"................",
"................",
"................",
"................",
"................",
"................",
"################",
"################",
"................",
"................",
"................",
"................",
"................",
"................",
"................",
"................"};
