/* XPM */
static const char * indicator_xpm[] = {
"16 16 146 2",
"  	c None",
". 	c #FEB430",
"+ 	c #FEB32E",
"@ 	c #F7BC41",
"# 	c #F5D886",
"$ 	c #F5D376",
"% 	c #F4B537",
"& 	c #F3B32E",
"* 	c #F5D16C",
"= 	c #F5CD5D",
"- 	c #EEAA24",
"; 	c #EEAC22",
"> 	c #F5CC55",
", 	c #F5C846",
"' 	c #E8A41E",
") 	c #FDB535",
"! 	c #FEB940",
"~ 	c #FEB73A",
"{ 	c #FDB63A",
"] 	c #E8A419",
"^ 	c #F5C640",
"/ 	c #F5C332",
"( 	c #E29E19",
"_ 	c #F6AA23",
": 	c #FFBF50",
"< 	c #FFBC48",
"[ 	c #F2A41B",
"} 	c #E09C13",
"| 	c #F5C22E",
"1 	c #F5BE1F",
"2 	c #DC9816",
"3 	c #EDA11B",
"4 	c #FFB93E",
"5 	c #FFB635",
"6 	c #E69B16",
"7 	c #D7950D",
"8 	c #F5BD1E",
"9 	c #F2BB1D",
"0 	c #C3890D",
"a 	c #D69218",
"b 	c #D69118",
"c 	c #E29714",
"d 	c #FFB430",
"e 	c #FFB129",
"f 	c #DA9213",
"g 	c #D3930D",
"h 	c #EEB81D",
"i 	c #D8A307",
"j 	c #B78000",
"k 	c #D5921D",
"l 	c #F3B039",
"m 	c #F3AE34",
"n 	c #D3921E",
"o 	c #D9900F",
"p 	c #FFB027",
"q 	c #FFAE1F",
"r 	c #CF8B12",
"s 	c #C38802",
"t 	c #E3AA00",
"u 	c #E2A800",
"v 	c #B98302",
"w 	c #C48719",
"x 	c #F3AD33",
"y 	c #F3AC2E",
"z 	c #C18419",
"A 	c #CF880C",
"B 	c #FFAD1F",
"C 	c #FDAC1D",
"D 	c #C27F09",
"E 	c #BB8500",
"F 	c #E6AB00",
"G 	c #E3A900",
"H 	c #B48102",
"I 	c #B67C17",
"J 	c #F3AC2F",
"K 	c #F3AA2A",
"L 	c #B37B19",
"M 	c #C8840D",
"N 	c #FDAB1B",
"O 	c #F8A005",
"P 	c #BD7900",
"Q 	c #B88400",
"R 	c #E7AC00",
"S 	c #E4AA00",
"T 	c #B18003",
"U 	c #C32E2E",
"V 	c #C22A2A",
"W 	c #AA7416",
"X 	c #F3AB2C",
"Y 	c #F3A928",
"Z 	c #A77419",
"` 	c #C27D03",
" .	c #FEA302",
"..	c #FEA202",
"+.	c #B87704",
"@.	c #B68500",
"#.	c #EAAE00",
"$.	c #E8AD00",
"%.	c #AE8003",
"&.	c #B32F2F",
"*.	c #CD7474",
"=.	c #C76969",
"-.	c #B63B3B",
";.	c #9F6D16",
">.	c #F2AA2A",
",.	c #F2A723",
"'.	c #9C6A12",
").	c #BC7A07",
"!.	c #FFA609",
"~.	c #FFA508",
"{.	c #B37509",
"].	c #BA8802",
"^.	c #F6B700",
"/.	c #F4B600",
"(.	c #AE8109",
"_.	c #A01111",
":.	c #C81010",
"<.	c #C51111",
"[.	c #A21717",
"}.	c #946511",
"|.	c #F2A621",
"1.	c #F2A620",
"2.	c #916312",
"3.	c #B6790D",
"4.	c #FFA912",
"5.	c #FFA911",
"6.	c #AB730F",
"7.	c #B9890B",
"8.	c #FEBF05",
"9.	c #FEBE04",
"0.	c #AD8211",
"a.	c #941C1C",
"b.	c #D51313",
"c.	c #D21414",
"d.	c #9B2626",
"e.	c #865C12",
"f.	c #ECA528",
"g.	c #875E14",
"h.	c #AE7512",
"i.	c #FDAC1E",
"j.	c #FDAB1C",
"k.	c #A77112",
"l.	c #AD8516",
"m.	c #F8C01E",
"n.	c #F7BF1C",
"o.	c #A37F18",
"                          . +   ",
"                        @ # $ % ",
"                        & * = - ",
"                        ; > , ' ",
"                ) ! ~ { ] ^ / ( ",
"                _ : < [ } | 1 2 ",
"                3 4 5 6 7 8 9 0 ",
"          a b   c d e f g h i j ",
"        k l m n o p q r s t u v ",
"        w x y z A B C D E F G H ",
"        I J K L M N O P Q R S T ",
"  U V   W X Y Z `  ...+.@.#.$.%.",
"&.*.=.-.;.>.,.'.).!.~.{.].^./.(.",
"_.:.<.[.}.|.1.2.3.4.5.6.7.8.9.0.",
"a.b.c.d.e.f.f.g.h.i.j.k.l.m.n.o.",
"                                "};

