/* XPM */
static const char * insert_xpm[] = {
"16 16 56 1",
" 	c None",
".	c #FFFFFF",
"+	c #E8E9EA",
"@	c #EBECEC",
"#	c #EDEEEE",
"$	c #EEEFEF",
"%	c #F0F0F0",
"&	c #F1F1F1",
"*	c #F2F2F2",
"=	c #F2F3F3",
"-	c #F3F3F3",
";	c #ECEDED",
">	c #EEEEEE",
",	c #EFF0F0",
"'	c #F3F4F4",
")	c #F4F5F5",
"!	c #F5F5F5",
"~	c #F5F6F6",
"{	c #F6F6F6",
"]	c #F7F7F7",
"^	c #F8F8F8",
"/	c #F0F1F1",
"(	c #F4F4F4",
"_	c #F9F9F9",
":	c #FAFAFA",
"<	c #FBFBFB",
"[	c #FCFCFC",
"}	c #FDFDFD",
"|	c #FEFEFE",
"1	c #E2E2E2",
"2	c #E7E6E8",
"3	c #8CCE7C",
"4	c #91D37C",
"5	c #F9F9FB",
"6	c #EAE9EA",
"7	c #51B03E",
"8	c #5FBB45",
"9	c #E5E2E6",
"0	c #55AB52",
"a	c #2E9826",
"b	c #4FB240",
"c	c #5BBB47",
"d	c #4FB13B",
"e	c #5FBD48",
"f	c #318D30",
"g	c #178013",
"h	c #38A127",
"i	c #46AD2D",
"j	c #239713",
"k	c #32A81A",
"l	c #F8F9FB",
"m	c #EAE6EA",
"n	c #1D8610",
"o	c #349E1B",
"p	c #25850F",
"q	c #1D8A19",
"                ",
"  ............  ",
"  .+@#$%&*=--.  ",
"  .;>,&=')!~{.  ",
"  .$%*'!{]^^^.  ",
"  ./*({]^_:::.  ",
"  .*({^_:<<<<.  ",
"  .'{^::<[[[[.  ",
"  .!]_:<[}}}|.  ",
"  .{_:<[}.....  ",
"  .]:<[}.12345  ",
"  .^:<[}.6.789  ",
"  ._:<}|.0abcde ",
"  ._:[}|.fghijk ",
"  .......lmno   ",
"           pq   "};
