/* XPM */
static const char * lock_xpm[] = {
"16 16 63 1",
" 	c None",
".	c #9C9C9C",
"+	c #A1A1A1",
"@	c #B1B1B1",
"#	c #E1E1E1",
"$	c #DCDCDC",
"%	c #DBDBDB",
"&	c #E6E6E6",
"*	c #C0C0C0",
"=	c #979797",
"-	c #DEDEDE",
";	c #8D8D8D",
">	c #D2D2D2",
",	c #AFAFAF",
"'	c #D1D1D1",
")	c #C6C6C6",
"!	c #8F8F8F",
"~	c #D6D6D6",
"{	c #9F9F9F",
"]	c #7C7C7C",
"^	c #CFCFCF",
"/	c #919191",
"(	c #858585",
"_	c #C5C5C5",
":	c #999999",
"<	c #939393",
"[	c #C2C2C2",
"}	c #B5935E",
"|	c #E9C63F",
"1	c #D4AA30",
"2	c #BE942A",
"3	c #AB8223",
"4	c #AC8222",
"5	c #BB9029",
"6	c #D2AB2E",
"7	c #EBD55F",
"8	c #AE924E",
"9	c #B3925D",
"0	c #F8D526",
"a	c #EEBD02",
"b	c #D3A101",
"c	c #C99601",
"d	c #D39E01",
"e	c #DCA700",
"f	c #EDC102",
"g	c #FEEF57",
"h	c #AC914C",
"i	c #EEBD00",
"j	c #D6A402",
"k	c #C69302",
"l	c #DFAA00",
"m	c #F1C500",
"n	c #FFF057",
"o	c #D6A400",
"p	c #C89500",
"q	c #D39E00",
"r	c #CC9900",
"s	c #D6A100",
"t	c #AD8323",
"u	c #AF8422",
"v	c #BF9328",
"w	c #D3AC2E",
"x	c #EDD75F",
"       .+       ",
"     @#$%&*     ",
"    =-.  ;>,    ",
"    ')    !~    ",
"    ${    ]^    ",
"    $/    (_    ",
"    $:    <[    ",
"   }|12345678   ",
"   90abcdefgh   ",
"   90ijkdlmnh   ",
"   90iopqlmnh   ",
"   90iorslmnh   ",
"   90iorslmnh   ",
"   90iorslmnh   ",
"   }|12tuvwx8   ",
"                "};

