/* XPM */
static const char * new_xpm[] = {
"16 16 75 1",
" 	c None",
".	c #007500",
"+	c #29A829",
"@	c #5BC35B",
"#	c #2AAA2A",
"$	c #EAEAEA",
"%	c #E8E9E9",
"&	c #EAEBEB",
"*	c #ECEDED",
"=	c #EDEEEE",
"-	c #EEEFEF",
";	c #EFF0F0",
">	c #F0F1F1",
",	c #8FCF8F",
"'	c #36BF36",
")	c #78D578",
"!	c #FFFFFF",
"~	c #7AD578",
"{	c #35C035",
"]	c #E8E9EA",
"^	c #21A621",
"/	c #1DB61D",
"(	c #3FB429",
"_	c #5ABC29",
":	c #33BC1D",
"<	c #009B00",
"[	c #EBECEC",
"}	c #F1F1F1",
"|	c #F2F2F2",
"1	c #F3F3F3",
"2	c #099509",
"3	c #009300",
"4	c #EDEDED",
"5	c #F3F4F4",
"6	c #F5F5F5",
"7	c #F6F6F6",
"8	c #21B421",
"9	c #03A000",
"0	c #34A000",
"a	c #64B000",
"b	c #32AF00",
"c	c #00A800",
"d	c #F2F3F3",
"e	c #F4F4F4",
"f	c #F7F7F7",
"g	c #F8F8F8",
"h	c #95DD95",
"i	c #02AD02",
"j	c #1AA300",
"k	c #36B000",
"l	c #03AD00",
"m	c #F4F5F5",
"n	c #F9F9F9",
"o	c #FAFAFA",
"p	c #95DF95",
"q	c #23C423",
"r	c #0AAF0A",
"s	c #00B300",
"t	c #FBFBFB",
"u	c #FCFCFC",
"v	c #FDFDFD",
"w	c #FEFEFE",
"x	c #EFEFF0",
"y	c #F5F6F6",
"z	c #E0E0E0",
"A	c #C6C6C6",
"B	c #CECFCF",
"C	c #848688",
"D	c #C4C4C4",
"E	c #808585",
"F	c #F6F7F7",
"G	c #CCCCCC",
"H	c #7E8383",
"I	c #E9E9EA",
"J	c #7E8181",
"          .+@#  ",
" $%&*=-;>,')!~{ ",
" ]%&*=-;>^/(!_:<",
" [[*-;}|12!!!!!3",
" =4->|567890!abc",
" -->de7fghij!kl ",
" >>dm7gnoopqrs  ",
" ||e7goottuuu   ",
" 557gottuuvvv   ",
" e6footuvvwww   ",
" m7notuvwwuox   ",
" yfotuvwwzABC   ",
" 7gotuvwtDvE    ",
" FgotuvweGH     ",
" Fnttuv!IJ      ",
"                "};

