/* XPM */
static const char * next_xpm[] = {
"16 16 70 1",
" 	c None",
".	c #004E00",
"+	c #7BAD7B",
"@	c #0D570D",
"#	c #85C185",
"$	c #70AC70",
"%	c #195F19",
"&	c #005700",
"*	c #6DB36D",
"=	c #6DB46D",
"-	c #6BAF6B",
";	c #236B23",
">	c #006200",
",	c #55A855",
"'	c #55A955",
")	c #59A959",
"!	c #5CA75C",
"~	c #2D782D",
"{	c #026C03",
"]	c #3EA43E",
"^	c #3CA23C",
"/	c #40A240",
"(	c #459E45",
"_	c #499A49",
":	c #327F32",
"<	c #055905",
"[	c #047405",
"}	c #2AA52A",
"|	c #25A325",
"1	c #2AA02A",
"2	c #2E992E",
"3	c #319031",
"4	c #368836",
"5	c #327A32",
"6	c #0C630D",
"7	c #067C07",
"8	c #04A604",
"9	c #00A100",
"0	c #009700",
"a	c #018801",
"b	c #037803",
"c	c #006300",
"d	c #0A5C0A",
"e	c #086608",
"f	c #09820C",
"g	c #06BB06",
"h	c #00B400",
"i	c #00A600",
"j	c #009400",
"k	c #007F00",
"l	c #117A12",
"m	c #066F08",
"n	c #0B880E",
"o	c #08D008",
"p	c #00C400",
"q	c #00B000",
"r	c #059B05",
"s	c #007E02",
"t	c #0C8D0F",
"u	c #09D509",
"v	c #00C500",
"w	c #0CB00C",
"x	c #149216",
"y	c #0F9213",
"z	c #0BBC0B",
"A	c #16B117",
"B	c #129115",
"C	c #119615",
"D	c #2CA92E",
"E	c #0C8F11",
"                ",
"                ",
"    .+@         ",
"    .#$%        ",
"    &*=-;       ",
"    >,')!~      ",
"    {]^/(_:<    ",
"    [}|123456   ",
"    7890abcde   ",
"    fghijklm    ",
"    nopqrs      ",
"    tuvwx       ",
"    yzAB        ",
"    CDE         ",
"                ",
"                "};
