/* XPM */
static const char * prev_xpm[] = {
"16 16 64 1",
" 	c None",
".	c #004E00",
"+	c #327032",
"@	c #4A844A",
"#	c #438143",
"$	c #83C083",
"%	c #458545",
"&	c #075307",
"*	c #4F8E4F",
"=	c #70B370",
"-	c #6BB16B",
";	c #3A853A",
">	c #0F5C0F",
",	c #4F934F",
"'	c #5BA45B",
")	c #57A557",
"!	c #52A552",
"~	c #2D892D",
"{	c #186619",
"]	c #468746",
"^	c #479447",
"/	c #439943",
"(	c #3E9D3E",
"_	c #3A9F3A",
":	c #248D24",
"<	c #1F671F",
"[	c #397639",
"}	c #337E33",
"|	c #2F872F",
"1	c #2D922D",
"2	c #279927",
"3	c #239E23",
"4	c #1C931C",
"5	c #0D5C0E",
"6	c #034703",
"7	c #015B01",
"8	c #026F02",
"9	c #007F00",
"0	c #009000",
"a	c #009D00",
"b	c #09960A",
"c	c #0E7010",
"d	c #096809",
"e	c #007500",
"f	c #008A00",
"g	c #00AE00",
"h	c #0CA40D",
"i	c #0D7D0F",
"j	c #108211",
"k	c #008F00",
"l	c #00A500",
"m	c #00BB00",
"n	c #0FB011",
"o	c #09820C",
"p	c #19971B",
"q	c #01A401",
"r	c #00BA00",
"s	c #13B415",
"t	c #1E9D1F",
"u	c #07AD07",
"v	c #16AB18",
"w	c #1A9A1E",
"x	c #29A52C",
"y	c #038E06",
"                ",
"           .    ",
"          +@    ",
"         #$%    ",
"       &*=-;    ",
"      >,')!~    ",
"     {]^/(_:    ",
"    <[}|1234    ",
"    567890ab    ",
"     cdefagh    ",
"      ijklmn    ",
"       opqrs    ",
"         tuv    ",
"          wx    ",
"           y    ",
"                "};
