/* XPM */
static const char * quit_xpm[] = {
"16 16 165 2",
"  	c None",
". 	c #ED9292",
"+ 	c #DC7373",
"@ 	c #DA6D6D",
"# 	c #D96D6D",
"$ 	c #D86D6D",
"% 	c #D76D6D",
"& 	c #D66D6D",
"* 	c #D87676",
"= 	c #E78F8F",
"- 	c #CC5B5B",
"; 	c #D19898",
"> 	c #C76767",
", 	c #C24646",
"' 	c #CA8888",
") 	c #C78888",
"! 	c #C2ADAD",
"~ 	c #C4A4A4",
"{ 	c #C4A3A3",
"] 	c #C3A2A2",
"^ 	c #C1ACAC",
"/ 	c #C68888",
"( 	c #BF5C5C",
"_ 	c #BC3E3E",
": 	c #C37878",
"< 	c #C7ABAB",
"[ 	c #E5E5E5",
"} 	c #E2D6D6",
"| 	c #C37B7B",
"1 	c #E7E0E0",
"2 	c #C47B7B",
"3 	c #E1D3D3",
"4 	c #E2E2E2",
"5 	c #C6AAAA",
"6 	c #BA5656",
"7 	c #B63535",
"8 	c #BC7373",
"9 	c #DFDCDC",
"0 	c #E9E7E7",
"a 	c #C98989",
"b 	c #BF6D6C",
"c 	c #E9E1E1",
"d 	c #E9E2E2",
"e 	c #BF6E6C",
"f 	c #C88988",
"g 	c #E7E5E5",
"h 	c #DCDADA",
"i 	c #BB7373",
"j 	c #B65151",
"k 	c #B13030",
"l 	c #C18686",
"m 	c #E7E7E7",
"n 	c #E0C9C8",
"o 	c #BC5F59",
"p 	c #C2665D",
"q 	c #E4DCDB",
"r 	c #C2675D",
"s 	c #BD5F59",
"t 	c #DFC8C7",
"u 	c #E4E4E4",
"v 	c #C18888",
"w 	c #B3504F",
"x 	c #A82222",
"y 	c #C28484",
"z 	c #E9E9E9",
"A 	c #DBB6B2",
"B 	c #C1594A",
"C 	c #C8614E",
"D 	c #E0D6D4",
"E 	c #C96653",
"F 	c #C56355",
"G 	c #BA7676",
"H 	c #951111",
"I 	c #9B0B09",
"J 	c #A94746",
"K 	c #EAEAEA",
"L 	c #DCC5C1",
"M 	c #BB3214",
"N 	c #C73C17",
"O 	c #DEC6BF",
"P 	c #DEC6BE",
"Q 	c #C53710",
"R 	c #B72403",
"S 	c #DABFBA",
"T 	c #A94847",
"U 	c #910C0A",
"V 	c #9A0F0C",
"W 	c #991410",
"X 	c #E7DCDB",
"Y 	c #EAEAE9",
"Z 	c #C1694F",
"` 	c #D03400",
" .	c #DB4B15",
"..	c #DB4B16",
"+.	c #C0664C",
"@.	c #E8E8E8",
"#.	c #E6DCDB",
"$.	c #9A1610",
"%.	c #91110D",
"&.	c #9A130E",
"*.	c #980800",
"=.	c #C77468",
"-.	c #EDEDED",
";.	c #E0DFDF",
">.	c #C68B74",
",.	c #CC5E2D",
"'.	c #CB5C2C",
").	c #C2876F",
"!.	c #DAD9D9",
"~.	c #EBEBEB",
"{.	c #C87569",
"].	c #990900",
"^.	c #91150F",
"/.	c #9A1710",
"(.	c #9A0900",
"_.	c #AC1901",
":.	c #D8907F",
"<.	c #E9E8E7",
"[.	c #DFDFDF",
"}.	c #D5D5D5",
"|.	c #CECECE",
"1.	c #D6D6D6",
"2.	c #E4E3E2",
"3.	c #D8917F",
"4.	c #AD1A01",
"5.	c #9B0A00",
"6.	c #921A11",
"7.	c #9A1B11",
"8.	c #A91600",
"9.	c #BB2400",
"0.	c #D35831",
"a.	c #E5A48C",
"b.	c #E5C1B2",
"c.	c #E3BFB0",
"d.	c #E3A28A",
"e.	c #D45831",
"f.	c #BC2500",
"g.	c #AB1700",
"h.	c #941D12",
"i.	c #9C2619",
"j.	c #940500",
"k.	c #A41200",
"l.	c #B41E00",
"m.	c #C32A00",
"n.	c #D83A00",
"o.	c #D13500",
"p.	c #C42B00",
"q.	c #B51F00",
"r.	c #A51300",
"s.	c #950600",
"t.	c #962416",
"u.	c #A23A31",
"v.	c #972616",
"w.	c #9A2612",
"x.	c #9E2A12",
"y.	c #A22D12",
"z.	c #A53012",
"A.	c #A73212",
"B.	c #A63212",
"C.	c #A43012",
"D.	c #A12E12",
"E.	c #9C2A12",
"F.	c #972612",
"G.	c #942616",
"H.	c #91241A",
"                                ",
"  . + @ @ @ # # $ $ % % & * =   ",
"  - ; ; ; ; ; ; ; ; ; ; ; ; >   ",
"  , ' ) ! ~ ' { { ' ] ^ / ' (   ",
"  _ : < [ } | 1 1 2 3 4 5 : 6   ",
"  7 8 9 0 a b c d e f g h i j   ",
"  k l m n o p q q r s t u v w   ",
"  x y z A B C D D E F A m G H   ",
"  I J K L M N O P Q R S z T U   ",
"  V W X Y Z `  ...` +.@.#.$.%.  ",
"  &.*.=.-.;.>.,.'.).!.~.{.].^.  ",
"  /.(._.:.<.[.}.|.1.2.3.4.5.6.  ",
"  7.*.8.9.0.a.b.c.d.e.f.g.].h.  ",
"  i.j.k.l.m.` n.n.o.p.q.r.s.t.  ",
"  u.v.w.x.y.z.A.B.C.D.E.F.G.H.  ",
"                                "};

