/* XPM */
static const char * recent_chart_xpm[] = {
"16 16 101 2",
"  	c None",
". 	c #00427F",
"+ 	c #004385",
"@ 	c #00407B",
"# 	c #FFFFFF",
"$ 	c #D3E5F3",
"% 	c #2E75B4",
"& 	c #78AED8",
"* 	c #AEC5D8",
"= 	c #2E78B6",
"- 	c #E7E8E8",
"; 	c #E9EAEB",
"> 	c #ECEDED",
", 	c #EEEFEF",
"' 	c #E6EAED",
") 	c #0E5599",
"! 	c #B3D3EB",
"~ 	c #F6F9FA",
"{ 	c #939494",
"] 	c #EEF0F2",
"^ 	c #8AA6C6",
"/ 	c #024D93",
"( 	c #EAEBEB",
"_ 	c #EEEEEE",
": 	c #EFF0F0",
"< 	c #789BBB",
"[ 	c #1C77BE",
"} 	c #F3F6F9",
"| 	c #F2F4F4",
"1 	c #7F7F7F",
"2 	c #D4D8D7",
"3 	c #DDE0E2",
"4 	c #1B75BC",
"5 	c #004788",
"6 	c #F0F1F1",
"7 	c #F1F1F1",
"8 	c #4A7AA4",
"9 	c #61A4D6",
"0 	c #F3F6F6",
"a 	c #E5E8E9",
"b 	c #111111",
"c 	c #272727",
"d 	c #202020",
"e 	c #60A2D3",
"f 	c #004482",
"g 	c #F2F3F3",
"h 	c #F3F3F3",
"i 	c #648FB0",
"j 	c #1774BC",
"k 	c #EDF1F3",
"l 	c #DBDDDE",
"m 	c #ADB0AF",
"n 	c #BFC2C2",
"o 	c #E2E6E9",
"p 	c #1674BB",
"q 	c #00497F",
"r 	c #F1F2F2",
"s 	c #F4F4F4",
"t 	c #F6F6F6",
"u 	c #D7D9DC",
"v 	c #076CAB",
"w 	c #83AED1",
"x 	c #D8DCDE",
"y 	c #CBCECE",
"z 	c #C6D9E1",
"A 	c #83AFD2",
"B 	c #0067A8",
"C 	c #F8F8F8",
"D 	c #F9F9F9",
"E 	c #7D97A7",
"F 	c #0676B4",
"G 	c #1566A8",
"H 	c #5B8CBA",
"I 	c #1668AB",
"J 	c #0775B2",
"K 	c #002D46",
"L 	c #F4F5F5",
"M 	c #FAFAFA",
"N 	c #FBFBFB",
"O 	c #B8BBBD",
"P 	c #447A96",
"Q 	c #287297",
"R 	c #4F6A83",
"S 	c #BBBFC0",
"T 	c #F7F7F7",
"U 	c #FCFCFC",
"V 	c #FDFDFD",
"W 	c #FEFEFE",
"X 	c #F8F8F9",
"Y 	c #EFF2F4",
"Z 	c #F5F5F5",
"` 	c #DDDDDD",
" .	c #E1E3E2",
"..	c #7A8081",
"+.	c #DADADA",
"@.	c #FAFAF9",
"#.	c #7C8282",
"$.	c #DCDEDD",
"%.	c #7A8181",
"&.	c #E9EDF0",
"*.	c #787F80",
"                    . + @       ",
"    # # # # # # $ % & * & =     ",
"    # - ; > , ' ) ! ~ { ] ^ /   ",
"    # ( > _ : < [ } | 1 2 3 4 5 ",
"    # > , 6 7 8 9 0 a b c d e f ",
"    # : 6 g h i j k l m n o p q ",
"    # r g s t u v w x y z A B   ",
"    # h s t C D E F G H I J K   ",
"    # L t C M N M O P Q R S     ",
"    # t T D M N U V U V V #     ",
"    # T C M N U V W W N X Y     ",
"    # C D M U V W W Z `  ...    ",
"    # C M N U V W M +.@.#.      ",
"    # M N N U V W g $.%.        ",
"    # # # # # # # &.*.          ",
"                                "};
