/* XPM */
static const char * refresh_xpm[] = {
"16 16 157 2",
"  	c None",
". 	c #035B03",
"+ 	c #247624",
"@ 	c #378237",
"# 	c #166816",
"$ 	c #005000",
"% 	c #137013",
"& 	c #5EA55E",
"* 	c #79BA79",
"= 	c #92CE92",
"- 	c #95D095",
"; 	c #86C186",
"> 	c #63A863",
", 	c #126E12",
"' 	c #0F680E",
") 	c #085907",
"! 	c #025401",
"~ 	c #3B8C39",
"{ 	c #7CBD7C",
"] 	c #7EC37E",
"^ 	c #7BBD7B",
"/ 	c #418F3F",
"( 	c #12720F",
"_ 	c #73B672",
": 	c #045F02",
"< 	c #327C2D",
"[ 	c #70B470",
"} 	c #6DB36D",
"| 	c #6EB36E",
"1 	c #5BA05B",
"2 	c #408740",
"3 	c #418641",
"4 	c #64A364",
"5 	c #6FB46F",
"6 	c #6FB26F",
"7 	c #71B571",
"8 	c #065F03",
"9 	c #156510",
"0 	c #579C57",
"a 	c #5DA45D",
"b 	c #5AA05A",
"c 	c #286F28",
"d 	c #034E02",
"e 	c #0A4B07",
"f 	c #135110",
"g 	c #054F03",
"h 	c #166A16",
"i 	c #4C9D4C",
"j 	c #5DAB5D",
"k 	c #5DAA5D",
"l 	c #60A960",
"m 	c #086005",
"n 	c #014E00",
"o 	c #30742C",
"p 	c #4C944C",
"q 	c #1F681F",
"r 	c #0A5205",
"s 	c #0E5607",
"t 	c #045002",
"u 	c #034F02",
"v 	c #0D5107",
"w 	c #066203",
"x 	c #067D06",
"y 	c #44A744",
"z 	c #4CA64C",
"A 	c #4DA04D",
"B 	c #0B6106",
"C 	c #085805",
"D 	c #2F712C",
"E 	c #3A843A",
"F 	c #2C752C",
"G 	c #044C02",
"H 	c #0D5207",
"I 	c #058F04",
"J 	c #1CAE1C",
"K 	c #37B237",
"L 	c #3BA63B",
"M 	c #2C8F2C",
"N 	c #0C5F06",
"O 	c #0D5F07",
"P 	c #276E27",
"Q 	c #2B752B",
"R 	c #156115",
"S 	c #074904",
"T 	c #035002",
"U 	c #12640A",
"V 	c #12A010",
"W 	c #189715",
"X 	c #188815",
"Y 	c #0B7108",
"Z 	c #0A6606",
"` 	c #065703",
" .	c #0A5B05",
"..	c #085008",
"+.	c #085408",
"@.	c #085604",
"#.	c #025001",
"$.	c #045402",
"%.	c #084604",
"&.	c #005900",
"*.	c #006E00",
"=.	c #077804",
"-.	c #095804",
";.	c #024E01",
">.	c #0C4C07",
",.	c #006B00",
"'.	c #008200",
").	c #058F02",
"!.	c #1A8607",
"~.	c #0A5C06",
"{.	c #014F01",
"].	c #075304",
"^.	c #16700C",
"/.	c #095505",
"(.	c #097605",
"_.	c #038E01",
":.	c #0D9307",
"<.	c #189A0D",
"[.	c #2B9E17",
"}.	c #268B14",
"|.	c #298B15",
"1.	c #32A319",
"2.	c #28A415",
"3.	c #209F11",
"4.	c #16990B",
"5.	c #13650A",
"6.	c #0B9206",
"7.	c #23A112",
"8.	c #2FA818",
"9.	c #31B11A",
"0.	c #2CB917",
"a.	c #2CB817",
"b.	c #33AE1B",
"c.	c #2CA617",
"d.	c #259F15",
"e.	c #0A5E06",
"f.	c #004D00",
"g.	c #1B700E",
"h.	c #269B14",
"i.	c #2BA617",
"j.	c #30B319",
"k.	c #23C712",
"l.	c #1BD30E",
"m.	c #1CD10F",
"n.	c #26C314",
"o.	c #3AAA1E",
"p.	c #1C730F",
"q.	c #004E00",
"r.	c #0D5F08",
"s.	c #16810C",
"t.	c #31A91A",
"u.	c #29CF16",
"v.	c #1EE210",
"w.	c #21C612",
"x.	c #0D8F07",
"y.	c #0A5905",
"z.	c #034F01",
"            . + @ # $           ",
"        % & * = - ; > ,     ' ) ",
"    ! ~ { ] ] ] ] ] ] ^ / ( _ : ",
"    < [ } | 1 2 3 4 } } 5 6 7 8 ",
"  9 0 a b c d e f g h i j k l m ",
"n o p p q r s t u v w x y z A B ",
"C D E F G s       H I J K L M N ",
"O P Q R S T       U V W X Y Z ` ",
" ...+.. @.#.                    ",
"$.%.&.*.=.-.        ;.          ",
"  >.,.'.).!.~.n {.].^.          ",
"  /.(._.:.<.[.}.|.1.2.3.4.      ",
"    5.6.4.7.8.9.0.a.b.c.d.e.    ",
"    f.g.h.i.j.k.l.m.n.o.p.q.    ",
"        r.s.t.u.v.w.x.y.        ",
"          f.f.z.;.f.f.          "};
