/* XPM */
static const char * rename_xpm[] = {
"16 16 13 1",
" 	c None",
".	c #888888",
"+	c #888888",
"@	c #888888",
"#	c #919290",
"$	c #BABAB9",
"%	c #C0C1C0",
"&	c #C5C5C5",
"*	c #D0D1D0",
"=	c #ECECEC",
"-	c #EDEDED",
";	c #EEEEEE",
">	c #FFFFFF",
"                ",
"                ",
"                ",
"                ",
" +@@@@@@@@@@@@+ ",
"+&=;;;;;;;;;;=&+",
"@->%#*>>>>>>>>-@",
"@;>>$>>>>>>>>>;@",
"@;>>$>>>>>>>>>;@",
"@;>>$>>>>>>>>>;@",
"@->%#*>>>>>>>>-@",
"+&=;;;;;;;;;;=&+",
" +@@@@@@@@@@@@+ ",
"                ",
"                ",
"                "};
