/* XPM */
static const char * save_xpm[] = {
"16 16 112 2",
"  	c None",
". 	c #4C4B4B",
"+ 	c #444344",
"@ 	c #B3B4B9",
"# 	c #B4B6B9",
"$ 	c #B4B6BB",
"% 	c #B6B8BC",
"& 	c #B7B9BC",
"* 	c #B8B9BC",
"= 	c #B9B9BC",
"- 	c #424041",
"; 	c #5A5959",
"> 	c #F1F4FA",
", 	c #F0F4FA",
"' 	c #F2F5FA",
") 	c #F3F6FB",
"! 	c #F5F8FC",
"~ 	c #F7F9FC",
"{ 	c #F9FBFD",
"] 	c #656364",
"^ 	c #403E3F",
"/ 	c #626061",
"( 	c #F9FAFD",
"_ 	c #9CB6CF",
": 	c #9DB6CF",
"< 	c #9DB7CF",
"[ 	c #9EB7D0",
"} 	c #9FB8D0",
"| 	c #FDFDFE",
"1 	c #3D3C3D",
"2 	c #5E5C5D",
"3 	c #FBFCFD",
"4 	c #F8F9FB",
"5 	c #F9F9FB",
"6 	c #F7F8FA",
"7 	c #F5F7FA",
"8 	c #F4F6F9",
"9 	c #F2F4F8",
"0 	c #F2F6F9",
"a 	c #3B3A3B",
"b 	c #5B595A",
"c 	c #EEF3F7",
"d 	c #EFF3F7",
"e 	c #EEF2F6",
"f 	c #EDF1F6",
"g 	c #EBF0F5",
"h 	c #E9EFF4",
"i 	c #E7EDF3",
"j 	c #393738",
"k 	c #575556",
"l 	c #E2EAF1",
"m 	c #8BA2B8",
"n 	c #8AA1B7",
"o 	c #8AA0B7",
"p 	c #89A0B6",
"q 	c #DCE5ED",
"r 	c #373536",
"s 	c #545253",
"t 	c #D4DEE8",
"u 	c #D0DDE8",
"v 	c #D0DCE7",
"w 	c #CFDCE7",
"x 	c #CFDBE7",
"y 	c #CEDBE6",
"z 	c #CDDAE6",
"A 	c #CFDAE6",
"B 	c #353333",
"C 	c #514E4F",
"D 	c #323031",
"E 	c #4D4A4B",
"F 	c #302D2E",
"G 	c #494546",
"H 	c #CDCDCD",
"I 	c #D6D6D6",
"J 	c #D6D5D5",
"K 	c #D5D5D5",
"L 	c #D3D3D3",
"M 	c #292627",
"N 	c #262324",
"O 	c #2B292A",
"P 	c #423F40",
"Q 	c #A7A7A7",
"R 	c #3F3C3D",
"S 	c #AEAEAE",
"T 	c #282727",
"U 	c #464344",
"V 	c #262425",
"W 	c #3B3839",
"X 	c #999999",
"Y 	c #343132",
"Z 	c #282526",
"` 	c #9F9F9F",
" .	c #413E3F",
"..	c #5A5758",
"+.	c #242222",
"@.	c #2D2A2A",
"#.	c #353132",
"$.	c #8B8A8B",
"%.	c #2B2829",
"&.	c #211F20",
"*.	c #909090",
"=.	c #363334",
"-.	c #514D4E",
";.	c #232021",
">.	c #1F1D1D",
",.	c #1E1B1C",
"'.	c #757575",
").	c #787878",
"!.	c #1B191A",
"~.	c #1B1919",
"{.	c #1F1C1D",
"].	c #211F1F",
"                                ",
"  . + @ @ @ @ # $ % & * = + .   ",
"  - ; > , , , > ' ) ! ~ { ] -   ",
"  ^ / ( _ _ _ _ : < [ } | / ^   ",
"  1 2 3 4 5 4 4 6 7 8 9 0 2 1   ",
"  a b c d d d c e f g h i b a   ",
"  j k l m m m m n n o p q k j   ",
"  r s t u u u v w x y z A s r   ",
"  B C C C C C C C C C C C C B   ",
"  D E E E E E E E E E E E E D   ",
"  F G G H I J K I I L M N G F   ",
"  O P P Q R B S S S S - T U O   ",
"  V W W X Y Z ` ` ` `  .V ..V   ",
"  +.@.#.$.%.&.*.*.*.*.=.&.-.;.  ",
"    >.,.'.).).).).).).!.~.{.].  ",
"                                "};
