/* XPM */
static const char * script_xpm[] = {
"16 16 153 2",
"  	c None",
". 	c #030303",
"+ 	c #040404",
"@ 	c #595959",
"# 	c #5D5D5D",
"$ 	c #5E5E5E",
"% 	c #7F7F7F",
"& 	c #5A5A5A",
"* 	c #626262",
"= 	c #454545",
"- 	c #484848",
"; 	c #A7A7A7",
"> 	c #AEAEAE",
", 	c #AFAFAF",
"' 	c #ADADAD",
") 	c #848484",
"! 	c #888888",
"~ 	c #878787",
"{ 	c #878787",
"] 	c #AEAEAE",
"^ 	c #959595",
"/ 	c #888888",
"( 	c #8A8A8A",
"_ 	c #AAAAAA",
": 	c #BEBEBE",
"< 	c #BFBFBF",
"[ 	c #A1A1A1",
"} 	c #A0A0A0",
"| 	c #A0A0A0",
"1 	c #9E9E9E",
"2 	c #9E9E9E",
"3 	c #BDBDBD",
"4 	c #BFBFBF",
"5 	c #A7A7A7",
"6 	c #9D9D9D",
"7 	c #9E9E9E",
"8 	c #A8A8A8",
"9 	c #B0B0B0",
"0 	c #B4B4B4",
"a 	c #D3D3D3",
"b 	c #D4D4D4",
"c 	c #9B9B9B",
"d 	c #9C9C9C",
"e 	c #A0A0A0",
"f 	c #A2A2A2",
"g 	c #A3A3A3",
"h 	c #A6A6A6",
"i 	c #A8A8A8",
"j 	c #D2D2D2",
"k 	c #A5A5A5",
"l 	c #A5A5A5",
"m 	c #B0B0B0",
"n 	c #DFDFDF",
"o 	c #C3C3C3",
"p 	c #C5C5C5",
"q 	c #B8B8B8",
"r 	c #D2D2D2",
"s 	c #E6E6E6",
"t 	c #D2D2D2",
"u 	c #DFDFDF",
"v 	c #BEBEBE",
"w 	c #C2C2C2",
"x 	c #1A3661",
"y 	c #1B3762",
"z 	c #213D67",
"A 	c #233F6A",
"B 	c #244475",
"C 	c #244576",
"D 	c #27436F",
"E 	c #27446F",
"F 	c #30507F",
"G 	c #315180",
"H 	c #385A8D",
"I 	c #385B8E",
"J 	c #3C5478",
"K 	c #526685",
"L 	c #536785",
"M 	c #566A88",
"N 	c #577CB2",
"O 	c #596D8B",
"P 	c #5F7596",
"Q 	c #647794",
"R 	c #677B98",
"S 	c #688DC1",
"T 	c #6C90C4",
"U 	c #7084A3",
"V 	c #788AA5",
"W 	c #79889E",
"X 	c #8291A8",
"Y 	c #8A99B0",
"Z 	c #919EB3",
"` 	c #98A3B4",
" .	c #99A6BA",
"..	c #9CB6DD",
"+.	c #9DB2CF",
"@.	c #9EAABC",
"#.	c #A1ACBD",
"$.	c #A3ACB9",
"%.	c #A5B0C1",
"&.	c #A8B1BF",
"*.	c #A8B2C2",
"=.	c #AEB8C6",
"-.	c #B4B8BE",
";.	c #B5B9BF",
">.	c #B6BEC9",
",.	c #BABEC4",
"'.	c #BFBFBF",
").	c #C2C2C2",
"!.	c #C2C8D0",
"~.	c #C5C5C5",
"{.	c #C5C8CD",
"].	c #C6C6C6",
"^.	c #C7C7C7",
"/.	c #C7D0DE",
"(.	c #C9C9C9",
"_.	c #CACACA",
":.	c #CBCBCB",
"<.	c #CBCFD5",
"[.	c #CDCDCD",
"}.	c #CDD6E4",
"|.	c #D0D0D0",
"1.	c #D0D2D6",
"2.	c #D0D3D7",
"3.	c #D1D1D1",
"4.	c #D2D2D2",
"5.	c #D3D3D3",
"6.	c #D4D4D4",
"7.	c #D4DEEC",
"8.	c #D5D5D5",
"9.	c #D7D7D7",
"0.	c #D8DEE7",
"a.	c #D9D9D9",
"b.	c #D9DADB",
"c.	c #D9DADD",
"d.	c #DADADA",
"e.	c #DCDCDC",
"f.	c #DEDEDE",
"g.	c #E0E3E6",
"h.	c #E1E1E1",
"i.	c #E4E4E4",
"j.	c #E5E5E5",
"k.	c #E6E6E6",
"l.	c #E7E7E7",
"m.	c #EBEBEB",
"n.	c #ECECEC",
"o.	c #EDEDED",
"p.	c #EEEEEE",
"q.	c #F1F1F1",
"r.	c #F4F4F4",
"s.	c #F5F5F5",
"t.	c #F6F6F6",
"u.	c #F8F8F8",
"v.	c #FFFFFF",
"              a b               ",
"              u.u.              ",
"      u 0 3 n r.r.n 4 j s       ",
"    t q.t.t.s.o.m.p.o.m.l.r     ",
"    9 j.t.g.>.=.*.&.2.k.e.i     ",
"    5 f.1.#.%.@. .Z X {.|.2     ",
"    p d.` Y !.b.$.V R W :.o     ",
"h :.|.9.Q U 0.n.i.c.P J 4.3.:.g ",
"d ~.:.5.x F }.n.h./.G y 6.:.~.c ",
"    q :.K B +.7...N C L :.q 1   ",
"    7 ].;.z I T S H A ,.^.6     ",
"    f '.).-.M D E O <.h._.e     ",
"    v (.[.3.5.9.a.a.d.a.4.v     ",
"      w k 8 p 6.6.p 8 l w       ",
"              8.8.              ",
"              m m               "};
