/* XPM */
static const char * search_xpm[] = {
"16 16 112 2",
"  	c None",
". 	c #A4A3BF",
"+ 	c #BABCD7",
"@ 	c #C5C8E2",
"# 	c #C3C3DB",
"$ 	c #88869D",
"% 	c #8583A0",
"& 	c #A1A9C9",
"* 	c #C3DBF0",
"= 	c #DDF1FB",
"- 	c #EAF5FB",
"; 	c #E1EEF8",
"> 	c #D7E0F2",
", 	c #B6B5CC",
"' 	c #8C95BC",
") 	c #ACD7F8",
"! 	c #C9F1FE",
"~ 	c #D6F2FC",
"{ 	c #DDF4FB",
"] 	c #DBF5FC",
"^ 	c #CEF0FD",
"/ 	c #CFE0F5",
"( 	c #9391A5",
"_ 	c #737392",
": 	c #89AEE6",
"< 	c #A7DCFF",
"[ 	c #B8E4FC",
"} 	c #C6ECFC",
"| 	c #CDEFFC",
"1 	c #CBEFFC",
"2 	c #BEEAFD",
"3 	c #AFDAFA",
"4 	c #C2C7E1",
"5 	c #6C7297",
"6 	c #3B7ADD",
"7 	c #79B2F4",
"8 	c #A0D2FA",
"9 	c #AFDBFB",
"0 	c #ABD7F7",
"a 	c #A8D6F7",
"b 	c #AADAFC",
"c 	c #99CEFD",
"d 	c #B6CAEE",
"e 	c #545055",
"f 	c #676D95",
"g 	c #175CD0",
"h 	c #3678DC",
"i 	c #5F96E1",
"j 	c #72A3E1",
"k 	c #6B9CDC",
"l 	c #6498DD",
"m 	c #6A9FE5",
"n 	c #70ACF2",
"o 	c #ACC2ED",
"p 	c #545155",
"q 	c #626286",
"r 	c #4472C8",
"s 	c #5692E3",
"t 	c #79A8E1",
"u 	c #8FB8E1",
"v 	c #98BFE1",
"w 	c #8EB8E2",
"x 	c #6FA0E0",
"y 	c #578EDF",
"z 	c #A9B1D6",
"A 	c #413F57",
"B 	c #6474AD",
"C 	c #71A2E1",
"D 	c #9BC4E4",
"E 	c #B7D4E3",
"F 	c #BFD7E2",
"G 	c #B3D2E3",
"H 	c #90BDE4",
"I 	c #93AFE0",
"J 	c #9594AC",
"K 	c #565578",
"L 	c #7788B9",
"M 	c #A2C1DD",
"N 	c #CADBE3",
"O 	c #D7DBE4",
"P 	c #C2D7E3",
"Q 	c #A7BCDC",
"R 	c #AAABCB",
"S 	c #8C8EA5",
"T 	c #474561",
"U 	c #7476A0",
"V 	c #999DC4",
"W 	c #A9ABCF",
"X 	c #999CC1",
"Y 	c #777697",
"Z 	c #6B6C87",
"` 	c #8A879B",
" .	c #CA9A50",
"..	c #A97114",
"+.	c #2A2939",
"@.	c #2E2E3E",
"#.	c #A06724",
"$.	c #FFE284",
"%.	c #FFEB89",
"&.	c #956410",
"*.	c #6B3A02",
"=.	c #ED9E1F",
"-.	c #FFEB95",
";.	c #FFEB88",
">.	c #653601",
",.	c #ED9D1C",
"'.	c #976713",
").	c #FFEC92",
"!.	c #FDCC68",
"~.	c #693A01",
"{.	c #D28921",
"].	c #A69084",
"      . + @ # $                 ",
"  % & * = - ; > ,               ",
"  ' ) ! ~ { ] ^ / (             ",
"_ : < [ } | 1 2 3 4             ",
"5 6 7 8 9 0 a b c d e           ",
"f g h i j k l m n o p           ",
"q r s t u v w x y z             ",
"A B C D E F G H I J             ",
"  K L M N O P Q R S             ",
"    T U V W X Y Z `  ...        ",
"        +.@.      #.$.%.&.      ",
"                  *.=.-.;.&.    ",
"                    >.,.-.;.'.  ",
"                      >.,.).!.  ",
"                        ~.{.].  ",
"                                "};

