/* XPM */
static const char * select_all_xpm[] = {
"16 16 61 1",
" 	c None",
".	c #000000",
"+	c #000000",
"@	c #000000",
"#	c #6D737A",
"$	c #73777B",
"%	c #797B7E",
"&	c #7F7F7F",
"*	c #8993A0",
"=	c #8994A1",
"-	c #8A95A2",
";	c #8B95A2",
">	c #8C96A3",
",	c #8C97A4",
"'	c #8D97A5",
")	c #8E98A5",
"!	c #8E99A6",
"~	c #8F99A7",
"{	c #A9B5C5",
"]	c #ACB2B9",
"^	c #BFBFBF",
"/	c #C5D4E7",
"(	c #C6D5E8",
"_	c #C7D6E9",
":	c #C8D7EA",
"<	c #C9D8EB",
"[	c #CAD9EC",
"}	c #CBDAED",
"|	c #CCDBEE",
"1	c #CDDCEF",
"2	c #CEDDF0",
"3	c #D3DFED",
"4	c #D6DEE7",
"5	c #D7DFE8",
"6	c #D8E0E9",
"7	c #D9E1EA",
"8	c #DAE2EB",
"9	c #DAE6F4",
"0	c #DBE3EC",
"a	c #DDE5EE",
"b	c #DEE2E7",
"c	c #DEE6EF",
"d	c #DFE7F0",
"e	c #E1E9F2",
"f	c #E5EDF6",
"g	c #E6EEF7",
"h	c #EFF3F8",
"i	c #F2F2F2",
"j	c #F3F3F3",
"k	c #F3F7FC",
"l	c #F4F4F4",
"m	c #F5F5F5",
"n	c #F6F6F6",
"o	c #F7F7F7",
"p	c #F8F8F8",
"q	c #F9F9F9",
"r	c #FAFAFA",
"s	c #FBFBFB",
"t	c #FDFDFD",
"u	c #FEFEFE",
"v	c #FFFFFF",
"                ",
"                ",
"   pjllmnnnnns  ",
"   ib45567888o  ",
"   j5**==---{p  ",
"   l5/(___:3cr  ",
"   m6(__:<[eqt  ",
"   m8--;,')fuv  ",
"   n8_:[|12gvv  ",
"   n0:[|2229kv  ",
"   o0>'!~~~~gv  ",
"   oa[|2#]$gkv  ",
"   oc}12g&vvvv  ",
"   od'~~g&vvvv  ",
"   shfgg%^&vvv  ",
"                "};
