/* XPM */
static const char * text_xpm[] = {
"16 16 103 2",
"  	c None",
". 	c #BE6D6D",
"+ 	c #C17C7C",
"@ 	c #BD7A7A",
"# 	c #BC7C7C",
"$ 	c #BF8484",
"% 	c #C18A8A",
"& 	c #BB7F7F",
"* 	c #BB7A7A",
"= 	c #BD7979",
"- 	c #BE7676",
"; 	c #B44C4C",
"> 	c #AE8585",
", 	c #7F3939",
"' 	c #631515",
") 	c #551212",
"! 	c #795353",
"~ 	c #A69292",
"{ 	c #541717",
"] 	c #5F1111",
"^ 	c #6E1919",
"/ 	c #945D5D",
"( 	c #944444",
"_ 	c #953939",
": 	c #894747",
"< 	c #9F7D7D",
"[ 	c #781C1C",
"} 	c #881E1E",
"| 	c #923535",
"1 	c #8D0C0C",
"2 	c #484343",
"3 	c #504D4D",
"4 	c #534F4F",
"5 	c #575757",
"6 	c #5B5B5B",
"7 	c #5E5C5C",
"8 	c #5C5555",
"9 	c #555555",
"0 	c #4F4F4F",
"a 	c #474747",
"b 	c #373737",
"c 	c #363636",
"d 	c #332525",
"e 	c #280707",
"f 	c #000000",
"g 	c #1E1E1E",
"h 	c #393939",
"i 	c #050505",
"j 	c #070707",
"k 	c #232323",
"l 	c #1D1D1D",
"m 	c #261919",
"n 	c #890F0F",
"o 	c #7A0505",
"p 	c #1A1A1A",
"q 	c #2F2F2F",
"r 	c #171717",
"s 	c #4D0606",
"t 	c #A40202",
"u 	c #750404",
"v 	c #151515",
"w 	c #262626",
"x 	c #080808",
"y 	c #920606",
"z 	c #BC0202",
"A 	c #6F0505",
"B 	c #101010",
"C 	c #202020",
"D 	c #0B0B0B",
"E 	c #9C0707",
"F 	c #D20303",
"G 	c #650707",
"H 	c #0E0E0E",
"I 	c #131313",
"J 	c #040404",
"K 	c #950808",
"L 	c #D40404",
"M 	c #570808",
"N 	c #020202",
"O 	c #830A0A",
"P 	c #BF0404",
"Q 	c #4A0909",
"R 	c #060606",
"S 	c #820B0B",
"T 	c #A90202",
"U 	c #460D0D",
"V 	c #111111",
"W 	c #2F201F",
"X 	c #3A1D1B",
"Y 	c #661512",
"Z 	c #671310",
"` 	c #561D1B",
" .	c #322220",
"..	c #181717",
"+.	c #333333",
"@.	c #0F0F0F",
"#.	c #4A4A4A",
"$.	c #353535",
"%.	c #4E4E4E",
"&.	c #636363",
"*.	c #6E6E6E",
"=.	c #616161",
"-.	c #434343",
"  . + @ # $ % & * = - ;         ",
"  > , ' ) ! ~ { ] ^ / (         ",
"  _       : < [     } |         ",
"  1       2 3 4 5 6 7 8 9 0 a b ",
"          c d e f g h i f j k l ",
"          m n o   p q j       r ",
"          s t u   v w x       f ",
"          y z A   B C D         ",
"          E F G   H I J         ",
"          K L M   J N J         ",
"          O P Q   x j R         ",
"          S T U   H V x         ",
"      W X Y Z `  ...C D         ",
"                  C +.@.        ",
"                  +.#.g         ",
"              $.%.&.*.=.-.      "};

