/* XPM */
static const char *trend_xpm[]={
"16 16 2 1",
". c None",
"# c #303030",
"...#............",
"....#...........",
".....#..........",
"......#.........",
".......#.......#",
"........#.....#.",
".........#...#..",
"..........#.#...",
"...........#....",
"..........#.#...",
".........#...#..",
"........#.....#.",
".......#.......#",
"......#.........",
".....#..........",
"....#..........."};
