/* XPM */
static const char * unselect_all_xpm[] = {
"16 16 212 2",
"  	c None",
". 	c #292F38",
"+ 	c #2A3039",
"@ 	c #2E343D",
"# 	c #353B43",
"$ 	c #3C4249",
"% 	c #434851",
"& 	c #4A4F57",
"* 	c #4F555B",
"= 	c #545860",
"- 	c #575C64",
"; 	c #5B6066",
"> 	c #5E6369",
", 	c #575C63",
"' 	c #2E3238",
") 	c #262A30",
"! 	c #262B33",
"~ 	c #2D333C",
"{ 	c #323740",
"] 	c #373C45",
"^ 	c #3B4149",
"/ 	c #40454D",
"( 	c #444951",
"_ 	c #494E56",
": 	c #4E535A",
"< 	c #52575E",
"[ 	c #434850",
"} 	c #282E37",
"| 	c #2C323B",
"1 	c #787C81",
"2 	c #DDDDDD",
"3 	c #E1E1E2",
"4 	c #E4E5E5",
"5 	c #E7E7E8",
"6 	c #E9EAEA",
"7 	c #EBEBEC",
"8 	c #ECEDED",
"9 	c #E9E9EA",
"0 	c #D2D2D3",
"a 	c #AAACAE",
"b 	c #A8A8AA",
"c 	c #A8A9AB",
"d 	c #B4B4B6",
"e 	c #909295",
"f 	c #898D92",
"g 	c #D4DBE2",
"h 	c #7CA3D4",
"i 	c #7EA5D4",
"j 	c #81A8D6",
"k 	c #85AAD8",
"l 	c #87ABD6",
"m 	c #87ACD5",
"n 	c #85A7D1",
"o 	c #85A6CD",
"p 	c #87A7CE",
"q 	c #8AA9CF",
"r 	c #8CAACF",
"s 	c #93B1D3",
"t 	c #CED8E5",
"u 	c #AAACAF",
"v 	c #82868B",
"w 	c #D7DBDE",
"x 	c #B9C9DC",
"y 	c #BACADC",
"z 	c #BAC9DC",
"A 	c #BBC8DB",
"B 	c #B8C7D8",
"C 	c #B2C0D2",
"D 	c #B2C0D1",
"E 	c #B4C1D3",
"F 	c #B5C2D2",
"G 	c #B6C3D2",
"H 	c #BFCBD9",
"I 	c #CDD7E5",
"J 	c #DFE2E8",
"K 	c #A3A6AA",
"L 	c #71767C",
"M 	c #C9CDD1",
"N 	c #A9BBD1",
"O 	c #ADBED4",
"P 	c #B1C1D5",
"Q 	c #B2C2D7",
"R 	c #AFC1D4",
"S 	c #B4C3D5",
"T 	c #BCC8DA",
"U 	c #C1CDDC",
"V 	c #C3CFDD",
"W 	c #C6D1DF",
"X 	c #C9D5E3",
"Y 	c #CAD6E4",
"Z 	c #DADFE5",
"` 	c #9C9FA3",
" .	c #6C7076",
"..	c #C3C9D0",
"+.	c #88A9D1",
"@.	c #8CABD2",
"#.	c #8FAED4",
"$.	c #92B0D5",
"%.	c #9AB6D7",
"&.	c #A6BFDC",
"*.	c #B1C7E0",
"=.	c #BBCCE3",
"-.	c #D5DCE5",
";.	c #DBDFE3",
">.	c #D6DAE1",
",.	c #C3D2E2",
"'.	c #D4DBE5",
").	c #95989C",
"!.	c #6F7378",
"~.	c #D5D6D8",
"{.	c #D8D9DA",
"].	c #DBDCDE",
"^.	c #DFDFE1",
"/.	c #E2E3E4",
"(.	c #E7E8E9",
"_.	c #ECECED",
":.	c #E1E1E1",
"<.	c #E8E8E8",
"[.	c #F1F1F1",
"}.	c #F4F4F4",
"|.	c #D2D2D2",
"1.	c #979A9E",
"2.	c #71757A",
"3.	c #D0D5DB",
"4.	c #90AFD6",
"5.	c #95B3D7",
"6.	c #9AB6DA",
"7.	c #A1BDDC",
"8.	c #B2C8E3",
"9.	c #C0D2E9",
"0.	c #D6D7D9",
"a.	c #E3D5D5",
"b.	c #E2B0B0",
"c.	c #EFEAEA",
"d.	c #EBCECE",
"e.	c #EDD2D2",
"f.	c #EEEFEF",
"g.	c #A0A2A6",
"h.	c #72757B",
"i.	c #DADCE0",
"j.	c #C3D1DF",
"k.	c #C8D4E2",
"l.	c #CDD7E6",
"m.	c #D5DEEA",
"n.	c #DEE6F0",
"o.	c #E4E9F0",
"p.	c #BEBEBE",
"q.	c #E1CBCB",
"r.	c #D98282",
"s.	c #DB8B8B",
"t.	c #DC8A8A",
"u.	c #E6BBBB",
"v.	c #F2F2F2",
"w.	c #A5A6A7",
"x.	c #DADDE0",
"y.	c #C1CFDF",
"z.	c #C6D3E3",
"A.	c #CBD7E5",
"B.	c #D1DCEA",
"C.	c #DDE5F0",
"D.	c #E1E6EC",
"E.	c #B0B0B0",
"F.	c #D8D8D8",
"G.	c #C95C5C",
"H.	c #BD1414",
"I.	c #C12525",
"J.	c #DECBCB",
"K.	c #E6E6E6",
"L.	c #ADAEAF",
"M.	c #D6DAE0",
"N.	c #A4BEDA",
"O.	c #A9C0DD",
"P.	c #ACC4DE",
"Q.	c #B1C6E1",
"R.	c #BED1E7",
"S.	c #CCDAEB",
"T.	c #9C9C9C",
"U.	c #CA8080",
"V.	c #BD0202",
"W.	c #C95959",
"X.	c #C01515",
"Y.	c #C43131",
"Z.	c #E0E0E0",
"`.	c #909194",
" +	c #5A5E65",
".+	c #BBBDC0",
"++	c #BEBFC2",
"@+	c #C0C2C5",
"#+	c #C3C5C7",
"$+	c #C6C8CA",
"%+	c #C9CBCD",
"&+	c #D1D2D4",
"*+	c #A7A7A8",
"=+	c #C7C5C5",
"-+	c #D09595",
";+	c #D9D9D9",
">+	c #D7B9B9",
",+	c #D9BBBB",
"'+	c #CFCFD0",
")+	c #686B6F",
"!+	c #31373F",
"~+	c #383D46",
"{+	c #40454E",
"]+	c #474C54",
"^+	c #4D525A",
"/+	c #7A7B7B",
"(+	c #C8C8C8",
"_+	c #D4D4D4",
":+	c #D7D7D7",
"<+	c #B3B4B5",
"[+	c #484B4F",
"}+	c #525252",
"                                ",
". + @ # $ % & * = - ; > , ' ) ! ",
". . ~ { ] ^ / ( _ : < [ + . } | ",
"1 2 3 4 5 6 7 8 9 0 a b c c d e ",
"f g h i j k l m n o p q r s t u ",
"v w x y z A B C D E F G H I J K ",
"L M N O P Q R S T U V W X Y Z ` ",
" ...+.@.#.$.%.&.*.=.-.;.>.,.'.).",
"!.~.{.].^./.(._.7 :.<.[.}.[.|.1.",
"2.3.4.5.6.7.8.9.0.a.b.c.d.e.f.g.",
"h.i.j.k.l.m.n.o.p.q.r.s.t.u.v.w.",
"h.x.y.z.A.B.C.D.E.F.G.H.I.J.K.L.",
"h.M.N.O.P.Q.R.S.T.U.V.W.X.Y.Z.`.",
" +.+++@+#+$+%+&+*+=+-+;+>+,+'+)+",
"  . . !+~+{+]+^+, /+(+_+:+<+[+  ",
"                      }+        "};
