/* XPM */
static const char * zoomin_xpm[] = {
"16 16 48 1",
" 	c None",
".	c #979797",
"+	c #787878",
"@	c #686868",
"#	c #717171",
"$	c #8A8A8A",
"%	c #909090",
"&	c #D6D6D6",
"*	c #EFEFEF",
"=	c #DEDEDE",
"-	c #A3A3A3",
";	c #6D6D6D",
">	c #9F9F9F",
",	c #AAAAAA",
"'	c #F8F8F8",
")	c #C4C4C4",
"!	c #929292",
"~	c #F5F5F5",
"{	c #F2F2F2",
"]	c #444444",
"^	c #EEEEEE",
"/	c #F6F6F6",
"(	c #8E8E8E",
"_	c #8F8F8F",
":	c #D5D5D5",
"<	c #E8E8E8",
"[	c #E1E1E1",
"}	c #F3F3F3",
"|	c #D0D0D0",
"1	c #707070",
"2	c #EDEDED",
"3	c #DCDCDC",
"4	c #676767",
"5	c #D8D8D8",
"6	c #C0C0C0",
"7	c #777777",
"8	c #A1A1A1",
"9	c #EBEBEB",
"0	c #828282",
"a	c #6B6B6B",
"b	c #B2B2B2",
"c	c #696969",
"d	c #949494",
"e	c #CACACA",
"f	c #BEBEBE",
"g	c #848484",
"h	c #747474",
"i	c #666666",
"                ",
"    .+@#$       ",
"   #%&*=-;>     ",
"  #,''''')@     ",
" .!~'{]^{/(_    ",
" +:'{<][<}|1    ",
" @2']]]]]^34    ",
" 15'^[]:[^67    ",
" _8'{<][<90.    ",
"  ab'}^^},;     ",
"  >cde3fg#hii   ",
"    _#@+.  iii  ",
"            iii ",
"             ii ",
"                ",
"                "};
